<svg id="Capa_1" data-name="Capa 1" xmlns="http://www.w3.org/2000/svg" xmlns:xlink="http://www.w3.org/1999/xlink" viewBox="0 0 164 39"><defs><style>.cls-1{fill:url(#linear-gradient);}.cls-2{fill:url(#linear-gradient-2);}.cls-3{fill:#e4650e;}.cls-4{fill:url(#linear-gradient-3);}.cls-5{fill:#ef8000;}.cls-6{fill:url(#linear-gradient-4);}.cls-7{fill:url(#linear-gradient-5);}.cls-8{fill:url(#linear-gradient-6);}.cls-9{fill:#fff;}</style><linearGradient id="linear-gradient" x1="92.52" y1="10.25" x2="92.52" y2="35.56" gradientUnits="userSpaceOnUse"><stop offset="0" stop-color="#0fb2b8"/><stop offset="0.29" stop-color="#0eaeb7"/><stop offset="0.59" stop-color="#0aa1b3"/><stop offset="0.89" stop-color="#038dae"/><stop offset="1" stop-color="#0083ab"/></linearGradient><linearGradient id="linear-gradient-2" x1="129.63" y1="10.25" x2="129.63" y2="35.56" gradientUnits="userSpaceOnUse"><stop offset="0" stop-color="#9b2d86"/><stop offset="0.25" stop-color="#972c86"/><stop offset="0.51" stop-color="#8a2b84"/><stop offset="0.77" stop-color="#762882"/><stop offset="1" stop-color="#5d2580"/></linearGradient><linearGradient id="linear-gradient-3" x1="16.29" y1="6.17" x2="16.29" y2="35.55" gradientUnits="userSpaceOnUse"><stop offset="0" stop-color="#ef8000"/><stop offset="0.19" stop-color="#ef7c01"/><stop offset="0.39" stop-color="#ed6f03"/><stop offset="0.59" stop-color="#eb5b07"/><stop offset="0.8" stop-color="#e73e0c"/><stop offset="1" stop-color="#e31913"/></linearGradient><linearGradient id="linear-gradient-4" x1="77.83" y1="10.32" x2="77.83" y2="35.63" gradientUnits="userSpaceOnUse"><stop offset="0" stop-color="#72b638"/><stop offset="0.19" stop-color="#6eb538"/><stop offset="0.39" stop-color="#61b138"/><stop offset="0.6" stop-color="#4daa38"/><stop offset="0.8" stop-color="#30a139"/><stop offset="1" stop-color="#0c9539"/></linearGradient><linearGradient id="linear-gradient-5" x1="45.79" y1="10.25" x2="45.79" y2="35.56" gradientUnits="userSpaceOnUse"><stop offset="0" stop-color="#d3d700"/><stop offset="0.18" stop-color="#cfd502"/><stop offset="0.36" stop-color="#c2d007"/><stop offset="0.55" stop-color="#aec80f"/><stop offset="0.73" stop-color="#91bc1b"/><stop offset="0.92" stop-color="#6cad2b"/><stop offset="1" stop-color="#5aa632"/></linearGradient><linearGradient id="linear-gradient-6" x1="109.56" y1="10.24" x2="109.56" y2="35.56" gradientUnits="userSpaceOnUse"><stop offset="0" stop-color="#0093b5"/><stop offset="0.26" stop-color="#028fb2"/><stop offset="0.53" stop-color="#0a82a8"/><stop offset="0.8" stop-color="#166e99"/><stop offset="1" stop-color="#225989"/></linearGradient></defs><title>Logos Marcas GLR</title><path class="cls-1" d="M95.15,12.93v-.09a2.63,2.63,0,0,0-5.26,0h0V28.45h0v4.44s0,0,0,0,0,0,0,0a2.63,2.63,0,0,0,5.26,0h0V17.29h0Z"/><path class="cls-2" d="M143.27,31.54h0l-6.78-11.91h0l-4.55-8-.06-.1h0l-.09-.13,0,0-.07-.1,0,0-.09-.11h0l-.11-.11,0,0-.09-.09,0,0-.1-.08,0,0-.13-.09h0l-.1-.07,0,0-.1-.06h0l-.14-.06h0l-.12,0h0l-.11,0h0l-.15,0h0l-.13,0h-.74l-.14,0h0l-.15,0h0l-.11,0h0l-.12,0h0l-.14.06h0l-.11.06,0,0-.1.07h0l-.12.09,0,0-.1.08,0,0-.09.09,0,0-.11.11h0l-.09.11,0,0-.07.1,0,0-.09.13h0l-.05.1L116,31.54h0a2.63,2.63,0,0,0,4.42,2.85h0a2.57,2.57,0,0,0,.17-.31L124,28.14h11.33l.73,1.28h0l2.64,4.64a2.44,2.44,0,0,0,.18.31h0a2.63,2.63,0,0,0,4.43-2.85ZM127,22.88l2.67-4.7,2.67,4.7Z"/><circle class="cls-3" cx="16.21" cy="25.51" r="2.62"/><path class="cls-4" d="M32.14,31.48,32,31.15,19.29,8.8l-.74-1.3h0a2.63,2.63,0,0,0-4.56,0h0L13.25,8.8.54,31.23l-.06.1-.06.1a2.87,2.87,0,0,0-.16.29h0a2.63,2.63,0,0,0,2.37,3.78,2.63,2.63,0,0,0,2.3-1.36h0l11.33-20L27.36,33.69l.23.4a2.68,2.68,0,0,0,.16.28h0a2.63,2.63,0,0,0,4.39-2.9Z"/><path class="cls-5" d="M17.88.75h0A8.21,8.21,0,0,0,9.53,4.13l-.12.18a1.21,1.21,0,0,0,1.9,1.49,5.77,5.77,0,0,1,3.85-2.69h0l.13,0h0L15.86,3A5.8,5.8,0,0,1,21,5.37l.08.12.17.25a1.21,1.21,0,0,0,2.15-1,1.12,1.12,0,0,0-.12-.34A8.17,8.17,0,0,0,17.88.75Z"/><path class="cls-6" d="M85.3,30.37H73V25.6H80.3a2.63,2.63,0,0,0,0-5.26H73v-3h0V15.58H85.3a2.63,2.63,0,0,0,0-5.26H70.36a2.63,2.63,0,0,0-2.45,1.81h0c0,.08,0,.15-.06.24v0a2.23,2.23,0,0,0,0,.22v0c0,.07,0,.15,0,.22s0,0,0,0h0V28.52h0V33h0v0s0,.06,0,.09,0,.11,0,.16l0,.1c0,.05,0,.11,0,.16l0,.09,0,.15,0,.09L68,34l0,.09.07.13.06.09.07.12.07.09.08.11.08.09.08.09.1.09.08.07.12.09.08.06.14.09.07,0,.16.08.07,0,.17.07.06,0,.19.05h.06l.2,0H85.3a2.63,2.63,0,0,0,0-5.26Z"/><path class="cls-7" d="M63.2,10.25A2.62,2.62,0,0,0,61,11.43h0a2.77,2.77,0,0,0-.18.31l-3.37,5.93-3,5.26-2.67,4.7-3.62-6.36A2.71,2.71,0,0,0,48,21h0a2.51,2.51,0,0,0-.36-.43h0l-.12-.11-.16-.13,0,0a2.62,2.62,0,0,0-3.74.67h0a2.91,2.91,0,0,0-.18.31l-3.63,6.38-2.67-4.7-3-5.26-.73-1.28h0l-2.64-4.64a2.35,2.35,0,0,0-.17-.31h0a2.63,2.63,0,0,0-4.43,2.85l6.78,11.91h0l4.55,8,.06.1h0l.09.13,0,0,.07.1,0,0,.09.11h0l.11.11,0,0,.09.08,0,0,.1.08h0l.12.09h0l.1.06,0,0,.11.05,0,0,.14.06h0l.12,0,0,0,.11,0h0l.15,0h0l.14,0h.74l.14,0h0l.15,0h0l.11,0,0,0,.12,0h0l.14-.06,0,0,.11-.05,0,0,.1-.06h0l.12-.09h0l.1-.08,0,0,.09-.08,0,0,.11-.11h0l.09-.11,0,0,.07-.1,0,0,.08-.13h0l.06-.1,3.7-6.49,3.7,6.49.06.1h0l.08.13,0,0,.07.1,0,0,.09.11h0l.11.11,0,0,.09.08,0,0,.1.08h0l.13.09h0l.1.06,0,0,.11.05,0,0,.14.06h0l.12,0,0,0,.11,0h0l.15,0h0l.14,0h.74l.14,0h0l.15,0h0l.11,0,0,0,.12,0h0l.14-.06,0,0,.11-.05,0,0,.1-.06h0l.12-.09h0l.1-.08,0,0,.09-.08,0,0,.11-.11h0l.09-.11,0,0,.07-.1,0,0,.08-.13h0l.06-.1,11.33-19.9a2.64,2.64,0,0,0-2.23-4Z"/><path class="cls-8" d="M119.34,10.25H99.79a2.63,2.63,0,0,0,0,5.25h7.15V28.45h0V33a2.63,2.63,0,0,0,5.26,0h0V15.5h7.15a2.63,2.63,0,0,0,0-5.26Z"/><path class="cls-5" d="M164,29.69a9.13,9.13,0,1,1-9.14-9.13A9.14,9.14,0,0,1,164,29.69Z"/><path class="cls-9" d="M148.31,31.31a1.38,1.38,0,0,1,.69-.15,1.74,1.74,0,0,1,.33,0,1,1,0,0,1,.25.08.27.27,0,0,1,.15.2,1.64,1.64,0,0,1,0,.39,2.27,2.27,0,0,1,0,.38.28.28,0,0,1-.13.21.92.92,0,0,1-.24.08,1.72,1.72,0,0,1-.36,0,1.76,1.76,0,0,1-.36,0l-.26-.07a.24.24,0,0,1-.14-.2,1.88,1.88,0,0,1,0-.4A1.19,1.19,0,0,1,148.31,31.31Z"/><path class="cls-9" d="M153.26,32.56a2.53,2.53,0,0,1-1.26-.37v1.92a.89.89,0,0,1-.14.56.58.58,0,0,1-.48.17h-.44l-.07-.06V27l.07-.07h.35a.64.64,0,0,1,.68.57,2,2,0,0,1,1.54-.67,1.6,1.6,0,0,1,.8.2,1.63,1.63,0,0,1,.59.58,3,3,0,0,1,.37.9,5,5,0,0,1,.13,1.19,4,4,0,0,1-.17,1.19,2.7,2.7,0,0,1-.46.9,2.08,2.08,0,0,1-.68.56A1.82,1.82,0,0,1,153.26,32.56Zm0-4.75a1.46,1.46,0,0,0-1.22.72v2.72a3,3,0,0,0,.56.3,1.45,1.45,0,0,0,.51.11,1,1,0,0,0,.84-.51,2.79,2.79,0,0,0,.32-1.45,2.72,2.72,0,0,0-.29-1.42A.85.85,0,0,0,153.21,27.81Z"/><path class="cls-9" d="M160.34,30.09h-3.25a2.17,2.17,0,0,0,.33,1.17,1.14,1.14,0,0,0,1,.41,3,3,0,0,0,.71-.1,3.52,3.52,0,0,0,.79-.33,1.3,1.3,0,0,1,.37.73,3.55,3.55,0,0,1-2.08.62,2.3,2.3,0,0,1-1.06-.22,1.87,1.87,0,0,1-.7-.61,2.55,2.55,0,0,1-.39-.92,5.19,5.19,0,0,1-.12-1.16,4.06,4.06,0,0,1,.15-1.14,2.81,2.81,0,0,1,.44-.9,2,2,0,0,1,1.67-.81,2.41,2.41,0,0,1,.95.18,1.93,1.93,0,0,1,.7.49,2.11,2.11,0,0,1,.44.75,2.89,2.89,0,0,1,.15.94c0,.15,0,.3,0,.44A3.42,3.42,0,0,1,160.34,30.09Zm-2.12-2.39q-1.05,0-1.13,1.56h2.23v-.14a1.78,1.78,0,0,0-.27-1A.94.94,0,0,0,158.22,27.7Z"/></svg>