<?xml version="1.0" encoding="utf-8"?>
<!-- Generator: Adobe Illustrator 16.0.0, SVG Export Plug-In . SVG Version: 6.00 Build 0)  -->
<!DOCTYPE svg PUBLIC "-//W3C//DTD SVG 1.1//EN" "http://www.w3.org/Graphics/SVG/1.1/DTD/svg11.dtd">
<svg version="1.1" id="Capa_1" xmlns="http://www.w3.org/2000/svg" xmlns:xlink="http://www.w3.org/1999/xlink" x="0px" y="0px"
	 width="174px" height="44px" viewBox="512.5 293.5 174 44" enable-background="new 512.5 293.5 174 44" xml:space="preserve">
<g>
	<title>Logos Marcas GLR</title>
	<g>
		<path d="M613.551,309.514v-0.093c0-1.499-1.216-2.715-2.714-2.715s-2.714,1.216-2.714,2.715l0,0v16.115l0,0v4.583l0,0l0,0
			c0,1.499,1.216,2.715,2.714,2.715s2.714-1.216,2.714-2.715l0,0v-16.104l0,0V309.514z"/>
		<path d="M663.197,328.725L663.197,328.725l-6.995-12.291l0,0l-4.694-8.262l-0.063-0.103l0,0l-0.092-0.134l0,0l-0.072-0.103l0,0
			l-0.093-0.114l0,0l-0.114-0.114l0,0l-0.092-0.093l0,0l-0.104-0.083l0,0l-0.135-0.093l0,0l-0.103-0.072l0,0l-0.104-0.062l0,0
			l-0.144-0.062l0,0h-0.124l0,0h-0.113l0,0h-0.154l0,0h-0.135h-0.764h-0.144l0,0h-0.155l0,0h-0.113l0,0h-0.124l0,0l-0.144,0.062l0,0
			l-0.114,0.062l0,0l-0.104,0.072l0,0l-0.124,0.093l0,0l-0.103,0.083l0,0l-0.093,0.093l0,0l-0.114,0.114l0,0l-0.092,0.114l0,0
			l-0.073,0.103l0,0l-0.092,0.134l0,0l-0.052,0.103l-12.402,20.553l0,0c-0.789,1.275-0.396,2.948,0.878,3.738
			c1.24,0.771,2.869,0.419,3.684-0.796l0,0c0.065-0.103,0.123-0.21,0.175-0.319l3.519-6.132h11.689l0.752,1.321l0,0l2.725,4.789
			c0.054,0.111,0.116,0.219,0.186,0.32l0,0c0.813,1.263,2.493,1.628,3.756,0.815c1.262-0.812,1.627-2.495,0.815-3.758l0,0
			L663.197,328.725z M646.411,319.785l2.755-4.852l2.754,4.852H646.411z"/>
		<circle cx="532.106" cy="322.5" r="2.705"/>
		<path d="M548.541,328.663l-0.145-0.341l-13.113-23.071l-0.763-1.342l0,0c-0.747-1.3-2.406-1.748-3.705-1.001
			c-0.416,0.239-0.761,0.585-1,1.001l0,0l-0.764,1.342l-13.113,23.154l-0.062,0.104l-0.062,0.103
			c-0.061,0.097-0.116,0.196-0.165,0.299l0,0c-0.655,1.35-0.094,2.974,1.254,3.63c0.371,0.18,0.779,0.274,1.191,0.272
			c0.987-0.001,1.896-0.538,2.373-1.403l0,0l11.689-20.646l11.452,20.182l0.237,0.413c0.049,0.1,0.104,0.196,0.165,0.289l0,0
			c0.827,1.251,2.51,1.596,3.761,0.769c1.251-0.826,1.595-2.511,0.769-3.763V328.663z"/>
		<path d="M533.829,296.94L533.829,296.94c-3.31-0.657-6.694,0.713-8.615,3.49l-0.124,0.186c-0.388,0.57-0.241,1.347,0.329,1.735
			c0.516,0.352,1.213,0.268,1.631-0.197c0.871-1.447,2.314-2.457,3.972-2.777l0,0h0.134l0,0l0.588-0.114
			c2.073-0.161,4.081,0.765,5.304,2.447l0.083,0.124l0.175,0.258c0.41,0.555,1.191,0.672,1.746,0.262
			c0.402-0.298,0.588-0.807,0.472-1.294c-0.022-0.123-0.064-0.242-0.124-0.351C538.146,298.734,536.128,297.369,533.829,296.94z"/>
		<path d="M603.388,327.518h-12.69v-4.925h7.531c1.499,0,2.714-1.215,2.714-2.715c0-1.499-1.215-2.715-2.714-2.715h-7.531v-3.097
			l0,0v-1.817h12.69c1.499,0,2.714-1.215,2.714-2.715c0-1.499-1.215-2.715-2.714-2.715l0,0h-15.414
			c-1.154,0.021-2.168,0.771-2.527,1.868l0,0c0,0.083,0,0.155-0.063,0.248l0,0c-0.003,0.076-0.003,0.152,0,0.228l0,0
			c0,0.072,0,0.155,0,0.227s0,0,0,0l0,0v16.217l0,0v4.625l0,0l0,0c0,0,0,0.062,0,0.093c0,0.03,0,0.113,0,0.165v0.104
			c0,0.052,0,0.113,0,0.164v0.094v0.154v0.094l0.155,0.165v0.093l0.072,0.135l0.062,0.092l0.072,0.124l0.072,0.094l0.083,0.113
			l0.083,0.093l0.082,0.093l0.104,0.093l0.083,0.072l0.124,0.093l0.083,0.062l0.145,0.094h0.072l0.165,0.082h0.072l0.176,0.073
			h0.062l0.196,0.051h0.062h0.207h15.775c1.499,0,2.714-1.215,2.714-2.714c0-1.5-1.215-2.716-2.714-2.716l0,0V327.518z"/>
		<path d="M580.586,306.748c-0.914-0.004-1.768,0.454-2.27,1.218l0,0c-0.069,0.103-0.131,0.21-0.186,0.32l-3.477,6.122l-3.095,5.429
			l-2.755,4.853l-3.735-6.565c-0.05-0.096-0.104-0.188-0.165-0.279l0,0c-0.107-0.161-0.231-0.311-0.371-0.442l0,0l-0.124-0.113
			l-0.166-0.135l0,0c-1.203-0.885-2.894-0.627-3.779,0.577c-0.027,0.038-0.054,0.074-0.079,0.113l0,0
			c-0.069,0.104-0.131,0.211-0.186,0.32l-3.746,6.587l-2.754-4.852l-3.096-5.43l-0.752-1.322l0,0l-2.724-4.79
			c-0.051-0.11-0.109-0.217-0.176-0.319l0,0c-0.812-1.263-2.493-1.628-3.755-0.816c-1.262,0.813-1.627,2.495-0.815,3.758
			l6.996,12.294l0,0l4.694,8.259l0.062,0.103l0,0l0.093,0.135l0,0l0.072,0.103l0,0l0.093,0.114l0,0l0.114,0.113l0,0l0.093,0.082l0,0
			l0.103,0.083l0,0l0.124,0.093l0,0l0.104,0.062l0,0l0.113,0.053l0,0l0.145,0.062l0,0h0.124l0,0h0.114l0,0h0.155l0,0h0.144h0.764
			h0.145l0,0h0.155l0,0h0.113l0,0h0.124l0,0l0.145-0.062l0,0l0.113-0.053l0,0l0.103-0.062l0,0l0.124-0.093l0,0l0.103-0.083l0,0
			l0.093-0.082l0,0l0.114-0.113l0,0l0.093-0.114l0,0l0.072-0.103l0,0l0.083-0.135l0,0l0.062-0.103l3.817-6.7l3.817,6.7l0.062,0.103
			l0,0l0.083,0.135l0,0l0.072,0.103l0,0l0.093,0.114l0,0l0.114,0.113l0,0l0.092,0.082l0,0l0.104,0.083l0,0l0.134,0.093l0,0
			l0.104,0.062l0,0l0.113,0.053l0,0l0.145,0.062l0,0h0.124l0,0h0.113l0,0h0.155l0,0h0.145h0.763h0.145l0,0h0.155l0,0h0.113l0,0
			h0.124l0,0l0.145-0.062l0,0l0.113-0.053l0,0l0.104-0.062l0,0l0.124-0.093l0,0l0.104-0.083l0,0l0.093-0.082l0,0l0.113-0.113l0,0
			l0.093-0.114l0,0l0.072-0.103l0,0l0.083-0.135l0,0l0.062-0.103l11.689-20.543c0.775-1.29,0.358-2.964-0.931-3.74
			c-0.414-0.249-0.887-0.383-1.37-0.39L580.586,306.748z"/>
		<path d="M638.508,306.748h-20.17c-1.496,0.092-2.634,1.38-2.541,2.877c0.084,1.367,1.174,2.458,2.541,2.542h7.377v13.369l0,0
			v4.696c0,1.499,1.215,2.715,2.713,2.715c1.499,0,2.714-1.216,2.714-2.715l0,0v-18.065h7.377c1.498,0,2.714-1.215,2.714-2.715
			s-1.216-2.715-2.714-2.715L638.508,306.748z"/>
		<path d="M684.585,326.814c0,5.206-4.218,9.426-9.419,9.426c-5.203,0-9.42-4.22-9.42-9.426c0-5.2,4.211-9.418,9.409-9.424
			C680.359,317.391,684.58,321.608,684.585,326.814z"/>
		<path d="M668.397,328.487c0.22-0.112,0.465-0.165,0.712-0.154c0.113-0.011,0.228-0.011,0.34,0
			c0.089,0.017,0.177,0.044,0.258,0.082c0.083,0.04,0.141,0.117,0.155,0.206c0.017,0.134,0.017,0.27,0,0.403
			c0.011,0.131,0.011,0.261,0,0.393c-0.009,0.09-0.059,0.169-0.135,0.217c-0.078,0.039-0.161,0.066-0.247,0.083
			c-0.123,0.012-0.248,0.012-0.371,0c-0.123,0.012-0.248,0.012-0.372,0l-0.268-0.073c-0.083-0.037-0.138-0.116-0.145-0.207
			c-0.015-0.137-0.015-0.274,0-0.412C668.309,328.843,668.334,328.659,668.397,328.487z"/>
		<path d="M673.505,329.777c-0.46-0.01-0.908-0.142-1.3-0.381v1.981c0.017,0.203-0.033,0.407-0.145,0.578
			c-0.129,0.132-0.313,0.196-0.496,0.176h-0.454l-0.071-0.063v-8.03l0.071-0.073h0.361c0.354-0.024,0.664,0.236,0.702,0.589
			c0.402-0.453,0.983-0.706,1.589-0.691c0.288-0.005,0.572,0.066,0.825,0.206c0.25,0.145,0.46,0.351,0.608,0.599
			c0.177,0.287,0.306,0.601,0.382,0.93c0.094,0.402,0.139,0.814,0.134,1.228c0.004,0.416-0.056,0.831-0.175,1.229
			c-0.099,0.337-0.259,0.652-0.475,0.93c-0.19,0.24-0.43,0.438-0.701,0.577C674.097,329.7,673.804,329.775,673.505,329.777z
			 M673.505,324.875c-0.52,0.014-0.996,0.294-1.259,0.743v2.808c0.181,0.123,0.374,0.227,0.577,0.31
			c0.168,0.069,0.346,0.108,0.526,0.114c0.361-0.012,0.689-0.212,0.866-0.527c0.244-0.46,0.357-0.977,0.331-1.497
			c0.034-0.507-0.069-1.013-0.3-1.466c-0.15-0.301-0.458-0.488-0.794-0.484H673.505z"/>
		<path d="M680.81,327.229h-3.353c-0.005,0.427,0.113,0.846,0.34,1.207c0.251,0.306,0.639,0.465,1.031,0.424
			c0.247-0.005,0.493-0.04,0.732-0.104c0.284-0.08,0.559-0.194,0.815-0.341c0.205,0.203,0.339,0.468,0.381,0.754
			c-0.63,0.432-1.382,0.656-2.146,0.64c-0.377,0.013-0.752-0.065-1.094-0.228c-0.29-0.146-0.538-0.361-0.722-0.629
			c-0.196-0.287-0.332-0.609-0.403-0.949c-0.085-0.394-0.127-0.795-0.123-1.198c-0.005-0.397,0.048-0.794,0.154-1.177
			c0.095-0.334,0.248-0.649,0.455-0.929c0.402-0.545,1.046-0.857,1.722-0.836c0.336-0.006,0.67,0.058,0.979,0.186
			c0.276,0.112,0.523,0.285,0.723,0.506c0.204,0.224,0.358,0.487,0.454,0.774c0.105,0.313,0.158,0.64,0.155,0.97
			c0,0.155,0,0.31,0,0.455C680.889,326.913,680.854,327.072,680.81,327.229z M678.622,324.761c-0.723,0-1.111,0.537-1.165,1.61h2.3
			v-0.145c0.011-0.364-0.086-0.724-0.278-1.031C679.289,324.909,678.964,324.744,678.622,324.761z"/>
	</g>
</g>
</svg>
