<svg id="Capa_1" data-name="Capa 1" xmlns="http://www.w3.org/2000/svg" viewBox="0 0 94.01 40"><defs><style>.cls-1{fill:#ad00ff;}.cls-2{fill:#fff;}.cls-3{fill:#ffac00;}.cls-4{fill:#737277;}</style></defs><title>Logos Marcas GLR</title><path class="cls-1" d="M30.72,34.65,29,8.72a1,1,0,0,0-1-.9H23.19a7.83,7.83,0,0,0-15.66,0H2.68a1,1,0,0,0-1,.9L0,34.65v.09A5.07,5.07,0,0,0,5.3,40H25.41a5.07,5.07,0,0,0,5.3-5.24ZM15.36,2A5.85,5.85,0,0,1,21.2,7.82H9.51A5.85,5.85,0,0,1,15.36,2"/><path class="cls-2" d="M6.1,15.12a2.59,2.59,0,0,1,2.61-2.61h8.41a8.57,8.57,0,0,1,6.21,2.1,5.45,5.45,0,0,1,1.63,4v.07a5.52,5.52,0,0,1-3.12,5.12c2.75,1.05,4.44,2.65,4.44,5.83v.07c0,4.34-3.53,6.51-8.89,6.51H8.71A2.59,2.59,0,0,1,6.1,33.64Zm9.91,7c2.31,0,3.77-.75,3.77-2.51v-.07c0-1.56-1.22-2.44-3.43-2.44H11.19v5Zm1.39,9.57c2.31,0,3.7-.81,3.7-2.58V29c0-1.59-1.19-2.58-3.87-2.58h-6v5.22Z"/><path class="cls-3" d="M31.9,31.46V31.4c0-3.71,2.82-5.42,6.85-5.42a12.08,12.08,0,0,1,4.16.7v-.29c0-2-1.24-3.11-3.65-3.11a11.06,11.06,0,0,0-3.33.48,2,2,0,0,1-.7.13,2,2,0,0,1-2-2A2,2,0,0,1,34.53,20,14.8,14.8,0,0,1,40,19.15c2.63,0,4.54.7,5.74,1.9a7.41,7.41,0,0,1,1.84,5.42v7.74a2.32,2.32,0,0,1-2.35,2.32,2.16,2.16,0,0,1-2.32-2v0a6.54,6.54,0,0,1-5.14,2.16C34.53,36.66,31.9,34.82,31.9,31.46ZM43,30.35V29.5a7.48,7.48,0,0,0-3.08-.63c-2.06,0-3.33.82-3.33,2.35v.06c0,1.3,1.08,2.06,2.63,2.06C41.45,33.33,43,32.1,43,30.35Z"/><path class="cls-3" d="M49.35,34.41v-.1A3.17,3.17,0,0,1,50.42,32l7.9-8.72H51.6a2,2,0,0,1-2-1.93,2,2,0,0,1,2-2H62.16a2.08,2.08,0,0,1,2.35,1.93v.1a3.17,3.17,0,0,1-1.08,2.35L55.5,32.45h7a2,2,0,0,1,2,2,2,2,0,0,1-2,1.93H51.69A2.08,2.08,0,0,1,49.35,34.41Z"/><path class="cls-3" d="M65.36,31.46V31.4c0-3.71,2.82-5.42,6.85-5.42a12.08,12.08,0,0,1,4.16.7v-.29c0-2-1.24-3.11-3.65-3.11a11.06,11.06,0,0,0-3.33.48,2,2,0,0,1-.7.13,2,2,0,0,1-2-2A2,2,0,0,1,68,20a14.8,14.8,0,0,1,5.42-.89c2.63,0,4.54.7,5.74,1.9A7.41,7.41,0,0,1,81,26.48v7.74a2.32,2.32,0,0,1-2.35,2.32,2.16,2.16,0,0,1-2.32-2v0a6.54,6.54,0,0,1-5.14,2.16C68,36.66,65.36,34.82,65.36,31.46Zm11.07-1.11V29.5a7.48,7.48,0,0,0-3.08-.63c-2.06,0-3.33.82-3.33,2.35v.06c0,1.3,1.08,2.06,2.63,2.06C74.91,33.33,76.44,32.1,76.44,30.35Z"/><path class="cls-3" d="M83.57,21.57a2.41,2.41,0,0,1,4.82,0v.76c.7-1.65,1.84-3.17,3.27-3.17A2.2,2.2,0,0,1,94,21.5a2.22,2.22,0,0,1-1.81,2.25c-2.44.57-3.81,2.44-3.81,5.87v4.5a2.41,2.41,0,0,1-4.82,0Z"/><path class="cls-4" d="M33,9.93a.85.85,0,0,1,.86-.86H36.2a2.67,2.67,0,0,1,3,2.7v0c0,1.81-1.41,2.74-3.16,2.74h-1.3v1.55a.86.86,0,1,1-1.72,0ZM36.08,13a1.21,1.21,0,0,0,1.36-1.18v0c0-.77-.54-1.18-1.39-1.18H34.72V13Z"/><path class="cls-4" d="M42.55,17a3,3,0,0,1-3.12-3.09v0a3,3,0,0,1,3-3.11,2.83,2.83,0,0,1,2.88,2.88.77.77,0,0,1-.79.81H41.11a1.39,1.39,0,0,0,1.46,1.17,2,2,0,0,0,1.2-.4.63.63,0,0,1,.41-.13.65.65,0,0,1,.66.67.67.67,0,0,1-.22.5A3.1,3.1,0,0,1,42.55,17Zm1.09-3.59a1.28,1.28,0,0,0-1.26-1.27,1.33,1.33,0,0,0-1.29,1.27Z"/><path class="cls-4" d="M46,11.68a.85.85,0,1,1,1.7,0v.27c.25-.58.65-1.12,1.15-1.12A.82.82,0,0,1,49,12.45c-.86.2-1.34.86-1.34,2.06V16.1a.85.85,0,1,1-1.7,0Z"/><path class="cls-4" d="M55.53,16.1a.85.85,0,1,1-1.7,0V16a2.11,2.11,0,0,1-1.75,1,2,2,0,0,1-2-2.22V11.68a.85.85,0,0,1,1.7,0v2.55c0,.8.38,1.22,1,1.22s1.06-.41,1.06-1.22V11.68a.85.85,0,1,1,1.7,0ZM52.32,10a.62.62,0,0,1,.11-.3l.61-1a.73.73,0,0,1,.64-.38c.41,0,.95.26.95.51a.55.55,0,0,1-.22.4l-.69.65a1.25,1.25,0,0,1-1,.37C52.5,10.31,52.32,10.2,52.32,10Z"/></svg>