<svg id="Capa_1" data-name="Capa 1" xmlns="http://www.w3.org/2000/svg" viewBox="0 0 199 40"><defs><style>.cls-1{fill:#eb661c;}.cls-2{fill:#dd0b14;}</style></defs><title>Logos Marcas GLR</title><path class="cls-1" d="M0,16.8a15,15,0,0,1,1.18-6.06A13.92,13.92,0,0,1,4.41,6.1a14.26,14.26,0,0,1,4.82-3,16.71,16.71,0,0,1,5.92-1,17.76,17.76,0,0,1,6.1,1,14.13,14.13,0,0,1,4.8,2.81l-5.75,6.93a5.07,5.07,0,0,0-2-1.55,6.36,6.36,0,0,0-2.64-.53,5.82,5.82,0,0,0-2.2.41,5.18,5.18,0,0,0-1.79,1.2,5.56,5.56,0,0,0-1.2,1.91,6.88,6.88,0,0,0-.43,2.5,6.32,6.32,0,0,0,.45,2.46,5.89,5.89,0,0,0,1.22,1.87,5.17,5.17,0,0,0,1.79,1.2,5.73,5.73,0,0,0,2.16.41,5.46,5.46,0,0,0,2.77-.67,5.88,5.88,0,0,0,1.83-1.57l5.75,6.89a13.87,13.87,0,0,1-4.64,3,16.48,16.48,0,0,1-6.26,1.12,16.42,16.42,0,0,1-5.92-1.06,14.36,14.36,0,0,1-4.82-3A14.19,14.19,0,0,1,1.18,22.8,14.8,14.8,0,0,1,0,16.8Z"/><path class="cls-1" d="M47.59,30.74H38.92V28.5h-.08a6.47,6.47,0,0,1-2.29,1.95,7.18,7.18,0,0,1-3.49.83,7.4,7.4,0,0,1-3.55-.75,6.21,6.21,0,0,1-2.22-2,7.65,7.65,0,0,1-1.16-2.74,14.35,14.35,0,0,1-.33-3V10.46h8.9V21.18a3.58,3.58,0,0,0,.49,2.16,1.74,1.74,0,0,0,1.46.62,1.78,1.78,0,0,0,1.46-.71,3.26,3.26,0,0,0,.56-2.06V10.46h8.9Z"/><path class="cls-1" d="M63,31.27a8.27,8.27,0,0,1-3-.56,6.17,6.17,0,0,1-2.39-1.56h-.08V40H48.79V10.46h8.36v2h.08a7.23,7.23,0,0,1,2.7-1.93A8,8,0,0,1,63,9.93a8.39,8.39,0,0,1,4,.93,8.85,8.85,0,0,1,2.89,2.43,10.92,10.92,0,0,1,1.75,3.39,12.72,12.72,0,0,1,.6,3.85,13.21,13.21,0,0,1-.6,3.93,11.07,11.07,0,0,1-1.75,3.45A8.81,8.81,0,0,1,67,30.35,8.28,8.28,0,0,1,63,31.27Zm1-10.75a3.53,3.53,0,0,0-.85-2.35,3.05,3.05,0,0,0-2.47-1,3.33,3.33,0,0,0-3.47,3.35A3.41,3.41,0,0,0,58.17,23a3.3,3.3,0,0,0,2.52,1,3.08,3.08,0,0,0,2.47-1A3.61,3.61,0,0,0,64,20.52Z"/><path class="cls-1" d="M99.62,10.46h8.67V12.7h.08a6.45,6.45,0,0,1,2.29-1.95,7.14,7.14,0,0,1,3.48-.83,7.23,7.23,0,0,1,3.52.77,6.33,6.33,0,0,1,2.23,2A7.68,7.68,0,0,1,121,15.4a14.1,14.1,0,0,1,.33,3V30.74h-8.9V19.94a3.61,3.61,0,0,0-.48-2.16,1.72,1.72,0,0,0-1.44-.62,1.75,1.75,0,0,0-1.45.71,3.28,3.28,0,0,0-.56,2.06V30.74h-8.9Z"/><path class="cls-1" d="M122.28,4.61a4.29,4.29,0,0,1,.37-1.75,4.56,4.56,0,0,1,1-1.45,4.91,4.91,0,0,1,1.48-1,4.52,4.52,0,0,1,1.81-.37,4.16,4.16,0,0,1,1.73.37,5.07,5.07,0,0,1,1.44,1,4.56,4.56,0,0,1,1,1.45,4.3,4.3,0,0,1,.37,1.75,4.39,4.39,0,0,1-.37,1.79,4.33,4.33,0,0,1-1,1.43,4.92,4.92,0,0,1-1.44.94,4.36,4.36,0,0,1-1.73.35,4.73,4.73,0,0,1-1.81-.35,4.78,4.78,0,0,1-1.48-.94,4.33,4.33,0,0,1-1-1.43A4.38,4.38,0,0,1,122.28,4.61Zm.15,5.86h8.9V30.74h-8.9Z"/><path class="cls-1" d="M131.75,20.52a12.69,12.69,0,0,1,.6-3.85,10.89,10.89,0,0,1,1.75-3.39A8.85,8.85,0,0,1,137,10.85a8.39,8.39,0,0,1,4-.93,8.17,8.17,0,0,1,2.93.56,5.68,5.68,0,0,1,2.35,1.6h.08V1.6h8.9V30.74h-8V28.62h-.08a5.89,5.89,0,0,1-2.58,1.95,9.16,9.16,0,0,1-3.58.71,8.39,8.39,0,0,1-4-.92,8.74,8.74,0,0,1-2.89-2.45,11,11,0,0,1-1.75-3.45A13.19,13.19,0,0,1,131.75,20.52Zm8.25,0a3.61,3.61,0,0,0,.85,2.45,3.08,3.08,0,0,0,2.47,1,3.3,3.3,0,0,0,2.52-1,3.41,3.41,0,0,0,.94-2.43,3.33,3.33,0,0,0-3.47-3.35,3.05,3.05,0,0,0-2.47,1A3.53,3.53,0,0,0,140,20.52Z"/><path class="cls-1" d="M167.17,17.86a1.55,1.55,0,0,0-.64-1.37,2.88,2.88,0,0,0-1.68-.44,5.38,5.38,0,0,0-2.33.52,9.42,9.42,0,0,0-1.95,1.21l-4.43-4.39a12.85,12.85,0,0,1,4.39-2.74,14.68,14.68,0,0,1,5.24-1,12.2,12.2,0,0,1,4.78.81,7.32,7.32,0,0,1,3,2.24,8.56,8.56,0,0,1,1.54,3.31,17.52,17.52,0,0,1,.44,4V30.74h-8.05V29.12h-.08a4.24,4.24,0,0,1-2.2,1.66,8.36,8.36,0,0,1-2.77.5,9.16,9.16,0,0,1-2.45-.35,6.7,6.7,0,0,1-2.27-1.12,6,6,0,0,1-1.68-2,6.42,6.42,0,0,1-.66-3,5.24,5.24,0,0,1,1.1-3.45,7.49,7.49,0,0,1,2.79-2.08,13.6,13.6,0,0,1,3.8-1,32.26,32.26,0,0,1,4.1-.27Zm.08,4.47a9.68,9.68,0,0,0-3.16.42,1.58,1.58,0,0,0-1.19,1.58,1.25,1.25,0,0,0,.19.71,1.63,1.63,0,0,0,.5.48,2.4,2.4,0,0,0,.67.29,2.66,2.66,0,0,0,.67.1,2.69,2.69,0,0,0,2-.81,2.9,2.9,0,0,0,.77-2.08v-.69Z"/><path class="cls-1" d="M175.49,20.52a12.69,12.69,0,0,1,.6-3.85,10.89,10.89,0,0,1,1.75-3.39,8.85,8.85,0,0,1,2.89-2.43,8.39,8.39,0,0,1,4-.93,8.17,8.17,0,0,1,2.93.56,5.68,5.68,0,0,1,2.35,1.6h.08V1.6H199V30.74h-8V28.62h-.08a5.89,5.89,0,0,1-2.58,1.95,9.16,9.16,0,0,1-3.58.71,8.39,8.39,0,0,1-4-.92,8.74,8.74,0,0,1-2.89-2.45,11,11,0,0,1-1.75-3.45A13.19,13.19,0,0,1,175.49,20.52Zm8.25,0a3.61,3.61,0,0,0,.85,2.45,3.08,3.08,0,0,0,2.47,1,3.3,3.3,0,0,0,2.52-1,3.41,3.41,0,0,0,.94-2.43,3.33,3.33,0,0,0-3.47-3.35,3.05,3.05,0,0,0-2.47,1A3.53,3.53,0,0,0,183.74,20.52Z"/><path class="cls-2" d="M85,5.56A15.5,15.5,0,0,0,75,32.92v6.83l5.26-3.92A15.51,15.51,0,1,0,85,5.56Zm0,26.06a10.44,10.44,0,0,1-10.44-10.3H95.44A10.44,10.44,0,0,1,85,31.62Z"/></svg>