<svg id="Capa_1" data-name="Capa 1" xmlns="http://www.w3.org/2000/svg" viewBox="0 0 216 42"><defs><style>.cls-1{fill:#ffea54;}.cls-2{fill:#fff;}</style></defs><title>Logos Marcas GLR</title><path class="cls-1" d="M12.43,15.56c2.06,0,2.72,1.21,2.82,3.75H9.34C9.48,16.86,10.19,15.56,12.43,15.56Zm11.31,8.27V21.24c0-7.87-3.89-11.76-11.49-11.76C4.83,9.48,0,13.68,0,20.17V23C0,30.32,4.83,33.8,13.63,33.8a19.07,19.07,0,0,0,10.1-2.46L20.92,26A16.82,16.82,0,0,1,14,27.54c-2.82,0-4.34-1-4.6-3.71Z"/><polygon class="cls-1" points="23.25 33.22 38.13 33.22 38.13 27.77 35.27 27.77 35.27 0.23 22.97 0.23 22.97 5.86 25.93 5.86 25.93 27.77 23.25 27.77 23.25 33.22"/><path class="cls-2" d="M59.72,6.89h2.73c2.37,0,3.94,1.25,3.94,3.53v1.43a3.63,3.63,0,0,1-3.94,3.8H59.72ZM46.09,33.22H62.9V27.77H59.72V21.69h3.71c8.18,0,13.64-2.86,13.64-9.7V10.47c0-6.79-5-10.24-13.64-10.24H46.09V5.86h3.13V27.77H46.09Z"/><path class="cls-2" d="M88.07,27.54C85.88,27.54,85,25.8,85,23V20.35c0-2.77.9-4.6,3.09-4.6s3.08,1.83,3.08,4.6V23C91.15,25.8,90.4,27.54,88.07,27.54Zm0,6.26c7.52,0,12.56-4.16,12.56-10.64v-3c0-6.44-5-10.69-12.56-10.69-7.2,0-12.56,4.25-12.56,10.69v3C75.51,29.64,80.87,33.8,88.07,33.8Z"/><path class="cls-2" d="M115.25,16.32c2,0,3.13,1.43,3.13,4.3v2.19c0,3-1.16,4.47-3.13,4.47S112,26.11,112,23V19.94C112.17,17.35,113.46,16.32,115.25,16.32ZM100.37,41.81h14.17V36.53H112V30.18a7.77,7.77,0,0,0,6.93,3.4c4,0,9-2.64,9-10.86V20.26c0-7.61-4.42-10.78-8.72-10.78a8.63,8.63,0,0,0-7.87,4.6c-.35-1.88-.94-4-1.34-4h-9.92v5.63h2.6V36.53h-2.33Z"/><path class="cls-2" d="M212.89,9.57c-3.76,0-5.72,2.46-6.53,5.59-.4-2.05-1.07-5.1-1.56-5.1h-9.93v5.63h2.59V27.77h-3.75V20.08c0-6.89-4.11-10.51-12.29-10.51a23.78,23.78,0,0,0-10.91,2.24L172.92,18a17.89,17.89,0,0,1,7.15-1.48c3,0,4.21,1.16,4.29,3.93a10.6,10.6,0,0,0-4.83-1c-5.94,0-9.79,2.19-9.79,6.62v.85a7.48,7.48,0,0,0,.06.89h-2.2V.23h-12.3V5.86h3V27.77h-4.7V10.06H141.9v5.63h2.33v7.87c0,1.83-.85,3-2.73,3s-2.64-1.43-2.64-3.71V10.06H127.32v5.63h2.19v8.68c0,6.66,3.53,9.43,8.09,9.43a7.6,7.6,0,0,0,7.2-4.65c.4,1.83,1,4.07,1.43,4.07h24.23V30c1.2,2.36,3.86,3.72,7.42,3.72,3.84,0,5.9-1.79,7.06-4.16.31,1.75.8,3.67,1.25,3.67h23.11V27.77h-2.5v-6c.09-3.18,2.5-4.16,4.65-4.16a11.64,11.64,0,0,1,3,.36l1.11-7.78A5.84,5.84,0,0,0,212.89,9.57ZM181.46,27.46c-1.65,0-2.46-.72-2.46-1.57v-.45c0-.76.72-1.56,2.37-1.56a5.16,5.16,0,0,1,3,.76A2.88,2.88,0,0,1,181.46,27.46Z"/></svg>