<svg id="Capa_1" data-name="Capa 1" xmlns="http://www.w3.org/2000/svg" viewBox="0 0 167 40"><defs><style>.cls-1{fill:#ff2841;}.cls-2{fill:#fff;}</style></defs><title>Logos Marcas GLR</title><g id="Logotipo"><rect class="cls-1" y="2.79" width="28.75" height="37.21"/><path class="cls-2" d="M2.42,30.95H3.62a1.5,1.5,0,0,0,1.15-1.19V13.61a1.45,1.45,0,0,0-1.15-1.15H2.42V7.19H17.66v5.27H14.4v18h5.68l.78-5.11h5.89V36H2.42Z"/><path class="cls-2" d="M31.57,30.95H33a1.5,1.5,0,0,0,1.15-1.19V13.61A1.45,1.45,0,0,0,33,12.46h-1.4V7.19H46.32v5.27H44.87a1.45,1.45,0,0,0-1.11,1.15V29.75a1.51,1.51,0,0,0,1.11,1.19h1.44V36H31.57ZM36.93.15h8.19V2.46L41,6H35.94Z"/><path class="cls-2" d="M49.49,30.91h1.19a1.5,1.5,0,0,0,1.15-1.19V13.57a1.45,1.45,0,0,0-1.15-1.15H49.49V7.19h14c7.7,0,11.82,2.43,11.82,7.45,0,3.62-2.1,5.31-5.72,6.18V21c4.24.66,6.59,2.84,6.59,6.75,0,5.56-4.82,8.28-12.56,8.28H49.49ZM61.3,18.76h1.48c2.31,0,3.21-1.07,3.21-3.09s-.86-3-3.17-3H61.3ZM63,30.7c2.55,0,3.5-1.15,3.5-3.54s-.95-3.38-3.5-3.38H61.3V30.7Z"/><path class="cls-2" d="M79.34,30.95h1.19a1.5,1.5,0,0,0,1.15-1.19V13.61a1.45,1.45,0,0,0-1.15-1.15H79.34V7.19h24.54v9.35H98.32l-.82-3.66H91.32v5.52h6.63v5.85H91.32v6.26h6.34l.78-4.36h5.81V36H79.34Z"/><path class="cls-2" d="M107.59,30.95h1.19a1.5,1.5,0,0,0,1.15-1.19V13.61a1.45,1.45,0,0,0-1.15-1.15h-1.19V7.19h14.33c8.4,0,12.19,2.72,12.19,8.23,0,3.42-1.65,5.52-5.6,6.55v.16c3,.62,4.41,1.89,5.31,5.93l.45,1.85c.16.74.66,1,1,1h.7V36H125.45l-.95-7.82c-.29-2.35-1.11-3.17-3.21-3.17h-1.73v5.93h2.59V36H107.59ZM119.32,20H121c2.76,0,3.54-1.28,3.54-3.58s-.82-3.62-3.54-3.62h-1.65Z"/><path class="cls-2" d="M137.19,21.6c0-9.55,6.67-14.86,14.91-14.86S167,12,167,21.6s-6.46,14.86-14.9,14.86S137.19,31.15,137.19,21.6Zm19.93.16c0-5.81-2.06-8.52-5-8.52s-5,2.72-5,8.52,2,8.65,5,8.65S157.12,27.57,157.12,21.77Z"/></g></svg>