<?xml version="1.0" encoding="utf-8"?>
<!-- Generator: Adobe Illustrator 21.1.0, SVG Export Plug-In . SVG Version: 6.00 Build 0)  -->
<svg version="1.0" id="Capa_1" xmlns="http://www.w3.org/2000/svg" xmlns:xlink="http://www.w3.org/1999/xlink" x="0px" y="0px"
	 width="164px" height="39px" viewBox="0 0 164 39" enable-background="new 0 0 164 39" xml:space="preserve">
<linearGradient id="SVGID_1_" gradientUnits="userSpaceOnUse" x1="92.52" y1="28.75" x2="92.52" y2="3.44" gradientTransform="matrix(1 0 0 -1 0 39)">
	<stop  offset="0" style="stop-color:#0FB2B8"/>
	<stop  offset="0.29" style="stop-color:#0EAEB7"/>
	<stop  offset="0.59" style="stop-color:#0AA1B3"/>
	<stop  offset="0.89" style="stop-color:#038DAE"/>
	<stop  offset="1" style="stop-color:#0083AB"/>
</linearGradient>
<path fill="url(#SVGID_1_)" d="M95.2,12.9L95.2,12.9c0-1.5-1.2-2.7-2.6-2.7c-1.5,0-2.6,1.2-2.6,2.6l0,0v15.6l0,0v4.4l0,0l0,0
	c0,1.5,1.2,2.6,2.6,2.6c1.5,0,2.6-1.2,2.6-2.6l0,0V17.3l0,0V12.9z"/>
<linearGradient id="SVGID_2_" gradientUnits="userSpaceOnUse" x1="129.667" y1="28.75" x2="129.667" y2="3.44" gradientTransform="matrix(1 0 0 -1 0 39)">
	<stop  offset="0" style="stop-color:#9B2D86"/>
	<stop  offset="0.25" style="stop-color:#972C86"/>
	<stop  offset="0.51" style="stop-color:#8A2B84"/>
	<stop  offset="0.77" style="stop-color:#762882"/>
	<stop  offset="1" style="stop-color:#5D2580"/>
</linearGradient>
<path fill="url(#SVGID_2_)" d="M143.3,31.5L143.3,31.5l-6.8-11.9l0,0l-4.6-8l-0.1-0.1l0,0l-0.1-0.1l0,0l-0.1-0.1l0,0l-0.1-0.1l0,0
	l-0.1-0.1l0,0l-0.1-0.1l0,0l-0.1-0.1l0,0l-0.1-0.1l0,0l-0.1-0.1l0,0l-0.1-0.1l0,0l-0.1-0.1l0,0h-0.1l0,0h-0.1l0,0h-0.1l0,0h-0.1
	h-0.7h-0.1l0,0h-0.1l0,0h-0.1l0,0h-0.1l0,0l-0.1,0.1l0,0l-0.1,0.1l0,0l-0.1,0.1l0,0l-0.1,0.1l0,0l-0.1,0.1l0,0l-0.1,0.1l0,0
	l-0.1,0.1l0,0l-0.1,0.1l0,0l-0.1,0.1l0,0l-0.1,0.1l0,0l-0.1,0.1l-12,19.9l0,0c-0.8,1.2-0.4,2.9,0.8,3.6c1.2,0.7,2.8,0.4,3.6-0.8l0,0
	c0.1-0.1,0.1-0.2,0.2-0.3l3.4-5.9h11.3l0.7,1.3l0,0l2.6,4.6c0.1,0.1,0.1,0.2,0.2,0.3l0,0c0.8,1.2,2.4,1.6,3.6,0.8
	S144.1,32.7,143.3,31.5L143.3,31.5L143.3,31.5z M127,22.9l2.7-4.7l2.7,4.7L127,22.9z"/>
<circle fill="#E4650E" cx="16.2" cy="25.5" r="2.6"/>
<linearGradient id="SVGID_3_" gradientUnits="userSpaceOnUse" x1="16.2853" y1="32.8195" x2="16.2853" y2="3.449" gradientTransform="matrix(1 0 0 -1 0 39)">
	<stop  offset="0" style="stop-color:#EF8000"/>
	<stop  offset="0.19" style="stop-color:#EF7C01"/>
	<stop  offset="0.39" style="stop-color:#ED6F03"/>
	<stop  offset="0.59" style="stop-color:#EB5B07"/>
	<stop  offset="0.8" style="stop-color:#E73E0C"/>
	<stop  offset="1" style="stop-color:#E31913"/>
</linearGradient>
<path fill="url(#SVGID_3_)" d="M32.1,31.5L32,31.1L19.3,8.8l-0.7-1.3l0,0c-0.7-1.3-2.3-1.7-3.6-1c-0.4,0.2-0.7,0.6-1,1l0,0l-0.7,1.3
	L0.5,31.2l-0.1,0.1l-0.1,0.1c-0.1,0.1-0.1,0.2-0.2,0.3l0,0c-0.6,1.3-0.1,2.9,1.2,3.5c0.4,0.2,0.8,0.3,1.2,0.3c1,0,1.8-0.5,2.3-1.4
	l0,0l11.3-20l11.1,19.5l0.2,0.4c0,0.1,0.1,0.2,0.2,0.3l0,0c0.8,1.2,2.4,1.5,3.6,0.7C32.6,34.3,32.9,32.7,32.1,31.5L32.1,31.5z"/>
<path fill="#EF8000" d="M17.9,0.8L17.9,0.8c-3.2-0.6-6.5,0.7-8.3,3.4L9.4,4.3C9,4.9,9.2,5.6,9.7,6c0.5,0.3,1.2,0.3,1.6-0.2
	c0.8-1.4,2.2-2.4,3.9-2.7l0,0h0.1l0,0L15.9,3c2-0.2,4,0.7,5.1,2.4l0.1,0.1l0.2,0.3c0.4,0.5,1.2,0.7,1.7,0.3c0.4-0.3,0.6-0.8,0.5-1.3
	c0-0.1-0.1-0.2-0.1-0.3C22.1,2.5,20.1,1.2,17.9,0.8z"/>
<linearGradient id="SVGID_4_" gradientUnits="userSpaceOnUse" x1="77.8886" y1="28.68" x2="77.8886" y2="3.37" gradientTransform="matrix(1 0 0 -1 0 39)">
	<stop  offset="0" style="stop-color:#72B638"/>
	<stop  offset="0.19" style="stop-color:#6EB538"/>
	<stop  offset="0.39" style="stop-color:#61B138"/>
	<stop  offset="0.6" style="stop-color:#4DAA38"/>
	<stop  offset="0.8" style="stop-color:#30A139"/>
	<stop  offset="1" style="stop-color:#0C9539"/>
</linearGradient>
<path fill="url(#SVGID_4_)" d="M85.3,30.4H73v-4.8h7.3c1.5,0,2.6-1.2,2.6-2.6c0-1.5-1.2-2.6-2.6-2.6H73v-3l0,0v-1.8h12.3
	c1.5,0,2.6-1.2,2.6-2.6c0-1.5-1.2-2.6-2.6-2.6H70.4c-1.1,0-2.1,0.7-2.4,1.8l0,0c0,0.1,0,0.1-0.1,0.2l0,0c0,0.1,0,0.1,0,0.2l0,0
	c0,0.1,0,0.1,0,0.2s0,0,0,0l0,0v15.7l0,0V33l0,0l0,0c0,0,0,0.1,0,0.1s0,0.1,0,0.2v0.1c0,0,0,0.1,0,0.2v0.1v0.2v0.1L68,34v0.1
	l0.1,0.1l0.1,0.1l0.1,0.1l0.1,0.1l0.1,0.1l0.1,0.1l0.1,0.1l0.1,0.1l0.1,0.1l0.1,0.1l0.1,0.1l0.1,0.1h0.1l0.2,0.1h0.1l0.2,0.1h0.1
	l0.2,0h0.1H70h15.3c1.5,0,2.6-1.2,2.6-2.6c0-1.5-1.2-2.6-2.6-2.6V30.4z"/>
<linearGradient id="SVGID_5_" gradientUnits="userSpaceOnUse" x1="45.1093" y1="28.75" x2="45.1093" y2="3.44" gradientTransform="matrix(1 0 0 -1 0 39)">
	<stop  offset="0" style="stop-color:#D3D700"/>
	<stop  offset="0.18" style="stop-color:#CFD502"/>
	<stop  offset="0.36" style="stop-color:#C2D007"/>
	<stop  offset="0.55" style="stop-color:#AEC80F"/>
	<stop  offset="0.73" style="stop-color:#91BC1B"/>
	<stop  offset="0.92" style="stop-color:#6CAD2B"/>
	<stop  offset="1" style="stop-color:#5AA632"/>
</linearGradient>
<path fill="url(#SVGID_5_)" d="M63.2,10.3c-0.9,0-1.7,0.4-2.2,1.2l0,0c-0.1,0.1-0.1,0.2-0.2,0.3l-3.4,5.9l-3,5.3l-2.7,4.7l-3.6-6.4
	c0-0.1-0.1-0.2-0.2-0.3l0,0c-0.1-0.2-0.2-0.3-0.4-0.4l0,0l-0.1-0.1l-0.2-0.1l0,0c-1.2-0.9-2.8-0.6-3.7,0.6c0,0-0.1,0.1-0.1,0.1l0,0
	c-0.1,0.1-0.1,0.2-0.2,0.3l-3.6,6.4L37.1,23l-3-5.3l-0.7-1.3l0,0l-2.6-4.6c0-0.1-0.1-0.2-0.2-0.3l0,0c-0.8-1.2-2.4-1.6-3.6-0.8
	c-1.2,0.8-1.6,2.4-0.8,3.6L33,26.3l0,0l4.5,8l0.1,0.1l0,0l0.1,0.1l0,0l0.1,0.1l0,0l0.1,0.1l0,0l0.1,0.1l0,0l0.1,0.1l0,0l0.1,0.1l0,0
	l0.1,0.1l0,0l0.1,0.1l0,0l0.1,0l0,0l0.1,0.1l0,0h0.1l0,0h0.1l0,0H39l0,0h0.1h0.7H40l0,0h0.2l0,0h0.1l0,0h0.1l0,0l0.1-0.1l0,0l0.1,0
	l0,0l0.1-0.1l0,0l0.1-0.1l0,0l0.1-0.1l0,0l0.1-0.1l0,0l0.1-0.1l0,0l0.1-0.1l0,0l0.1-0.1l0,0l0.1-0.1l0,0l0.1-0.1l3.7-6.5l3.7,6.5
	l0.1,0.1l0,0l0.1,0.1l0,0l0.1,0.1l0,0l0.1,0.1l0,0l0.1,0.1l0,0l0.1,0.1l0,0l0.1,0.1l0,0l0.1,0.1l0,0l0.1,0.1l0,0l0.1,0l0,0l0.1,0.1
	l0,0H50l0,0h0.1l0,0h0.2l0,0h0.1h0.7h0.1l0,0h0.2l0,0h0.1l0,0h0.1l0,0l0.1-0.1l0,0l0.1,0l0,0l0.1-0.1l0,0l0.1-0.1l0,0l0.1-0.1l0,0
	l0.1-0.1l0,0l0.1-0.1l0,0l0.1-0.1l0,0l0.1-0.1l0,0l0.1-0.1l0,0l0.1-0.1l11.3-19.9c0.8-1.2,0.3-2.9-0.9-3.6c-0.4-0.2-0.9-0.4-1.3-0.4
	L63.2,10.3z"/>
<linearGradient id="SVGID_6_" gradientUnits="userSpaceOnUse" x1="109.6509" y1="28.76" x2="109.6509" y2="3.44" gradientTransform="matrix(1 0 0 -1 0 39)">
	<stop  offset="0" style="stop-color:#0093B5"/>
	<stop  offset="0.26" style="stop-color:#028FB2"/>
	<stop  offset="0.53" style="stop-color:#0A82A8"/>
	<stop  offset="0.8" style="stop-color:#166E99"/>
	<stop  offset="1" style="stop-color:#225989"/>
</linearGradient>
<path fill="url(#SVGID_6_)" d="M119.3,10.3H99.8c-1.4,0.1-2.6,1.3-2.5,2.8c0.1,1.3,1.1,2.4,2.5,2.5h7.2v13l0,0V33
	c0,1.5,1.2,2.6,2.6,2.6c1.5,0,2.6-1.2,2.6-2.6l0,0V15.5h7.2c1.5,0,2.6-1.2,2.6-2.6C122,11.4,120.8,10.2,119.3,10.3L119.3,10.3z"/>
<path fill="#EF8000" d="M164,29.7c0,5-4.1,9.1-9.1,9.1s-9.1-4.1-9.1-9.1c0-5,4.1-9.1,9.1-9.1C159.9,20.6,164,24.6,164,29.7z"/>
<path fill="#FFFFFF" d="M148.3,31.3c0.2-0.1,0.5-0.2,0.7-0.1c0.1,0,0.2,0,0.3,0c0.1,0,0.2,0,0.3,0.1c0.1,0,0.1,0.1,0.1,0.2
	c0,0.1,0,0.3,0,0.4c0,0.1,0,0.3,0,0.4c0,0.1-0.1,0.2-0.1,0.2c-0.1,0-0.2,0.1-0.2,0.1c-0.1,0-0.2,0-0.4,0c-0.1,0-0.2,0-0.4,0
	l-0.3-0.1c-0.1,0-0.1-0.1-0.1-0.2c0-0.1,0-0.3,0-0.4C148.2,31.7,148.2,31.5,148.3,31.3z"/>
<path fill="#FFFFFF" d="M153.3,32.6c-0.4,0-0.9-0.1-1.3-0.4v1.9c0,0.2,0,0.4-0.1,0.6c-0.1,0.1-0.3,0.2-0.5,0.2h-0.4l-0.1-0.1V27
	l0.1-0.1h0.4c0.3,0,0.6,0.2,0.7,0.6c0.4-0.4,1-0.7,1.5-0.7c0.3,0,0.6,0.1,0.8,0.2c0.2,0.1,0.4,0.3,0.6,0.6c0.2,0.3,0.3,0.6,0.4,0.9
	c0.1,0.4,0.1,0.8,0.1,1.2c0,0.4-0.1,0.8-0.2,1.2c-0.1,0.3-0.3,0.6-0.5,0.9c-0.2,0.2-0.4,0.4-0.7,0.6
	C153.8,32.5,153.5,32.6,153.3,32.6z M153.3,27.8c-0.5,0-1,0.3-1.2,0.7v2.7c0.2,0.1,0.4,0.2,0.6,0.3c0.2,0.1,0.3,0.1,0.5,0.1
	c0.3,0,0.7-0.2,0.8-0.5c0.2-0.4,0.3-0.9,0.3-1.5c0-0.5-0.1-1-0.3-1.4C153.8,28,153.5,27.8,153.3,27.8L153.3,27.8z"/>
<path fill="#FFFFFF" d="M160.3,30.1h-3.3c0,0.4,0.1,0.8,0.3,1.2c0.2,0.3,0.6,0.5,1,0.4c0.2,0,0.5,0,0.7-0.1c0.3-0.1,0.5-0.2,0.8-0.3
	c0.2,0.2,0.3,0.5,0.4,0.7c-0.6,0.4-1.3,0.6-2.1,0.6c-0.4,0-0.7-0.1-1.1-0.2c-0.3-0.1-0.5-0.4-0.7-0.6c-0.2-0.3-0.3-0.6-0.4-0.9
	c-0.1-0.4-0.1-0.8-0.1-1.2c0-0.4,0-0.8,0.1-1.1c0.1-0.3,0.2-0.6,0.4-0.9c0.4-0.5,1-0.8,1.7-0.8c0.3,0,0.6,0.1,0.9,0.2
	c0.3,0.1,0.5,0.3,0.7,0.5c0.2,0.2,0.3,0.5,0.4,0.8c0.1,0.3,0.2,0.6,0.1,0.9c0,0.1,0,0.3,0,0.4C160.4,29.8,160.4,29.9,160.3,30.1z
	 M158.2,27.7c-0.7,0-1.1,0.5-1.1,1.6h2.2v-0.1c0-0.4-0.1-0.7-0.3-1C158.9,27.8,158.6,27.7,158.2,27.7z"/>
</svg>
