<?xml version="1.0" encoding="utf-8"?>
<!-- Generator: Adobe Illustrator 21.1.0, SVG Export Plug-In . SVG Version: 6.00 Build 0)  -->
<svg version="1.0" id="Capa_1" xmlns="http://www.w3.org/2000/svg" xmlns:xlink="http://www.w3.org/1999/xlink" x="0px" y="0px"
	 width="199px" height="40px" viewBox="0 0 199 40" enable-background="new 0 0 199 40" xml:space="preserve">
<path fill="#EB661C" d="M0,16.8c0-2.1,0.4-4.1,1.2-6.1C1.9,9,3,7.4,4.4,6.1c1.4-1.3,3-2.3,4.8-3c1.9-0.7,3.9-1,5.9-1
	c2.1,0,4.1,0.3,6.1,1C23,3.7,24.7,4.7,26,5.9l-5.8,6.9c-0.5-0.7-1.2-1.2-2-1.6c-0.8-0.4-1.7-0.5-2.6-0.5c-0.8,0-1.5,0.1-2.2,0.4
	c-0.7,0.3-1.3,0.7-1.8,1.2c-0.5,0.5-0.9,1.2-1.2,1.9c-0.3,0.8-0.4,1.6-0.4,2.5c0,0.8,0.1,1.7,0.4,2.5c0.3,0.7,0.7,1.3,1.2,1.9
	c0.5,0.5,1.1,0.9,1.8,1.2c0.7,0.3,1.4,0.4,2.2,0.4c1,0,1.9-0.2,2.8-0.7c0.7-0.4,1.3-0.9,1.8-1.6l5.8,6.9c-1.3,1.3-2.9,2.3-4.6,3
	c-2,0.8-4.1,1.2-6.3,1.1c-2,0-4-0.3-5.9-1.1c-1.8-0.7-3.4-1.7-4.8-3c-1.4-1.3-2.4-2.9-3.2-4.6C0.4,20.9,0,18.9,0,16.8z"/>
<path fill="#EB661C" d="M47.6,30.7h-8.7v-2.2h-0.1c-0.6,0.8-1.4,1.5-2.3,2c-1.1,0.6-2.3,0.9-3.5,0.8c-1.2,0-2.4-0.2-3.5-0.8
	c-0.9-0.5-1.7-1.2-2.2-2c-0.6-0.8-1-1.8-1.2-2.7c-0.2-1-0.3-2-0.3-3V10.5h8.9v10.7c-0.1,0.8,0.1,1.5,0.5,2.2
	c0.4,0.4,0.9,0.7,1.5,0.6c0.6,0,1.1-0.3,1.5-0.7c0.4-0.6,0.6-1.3,0.6-2.1V10.5h8.9L47.6,30.7z"/>
<path fill="#EB661C" d="M63,31.3c-1,0-2-0.2-3-0.6c-0.9-0.3-1.7-0.9-2.4-1.6h-0.1V40h-8.7V10.5h8.4v2h0.1c0.7-0.8,1.7-1.5,2.7-1.9
	c1-0.4,2-0.6,3.1-0.6c1.4,0,2.8,0.3,4,0.9c1.1,0.6,2.1,1.4,2.9,2.4c0.8,1,1.4,2.2,1.8,3.4c0.4,1.2,0.6,2.5,0.6,3.9
	c0,1.3-0.2,2.7-0.6,3.9c-0.4,1.2-1,2.4-1.8,3.5c-0.8,1-1.8,1.8-2.9,2.4C65.8,31,64.4,31.3,63,31.3z M64,20.5c0-0.9-0.3-1.7-0.8-2.4
	c-0.6-0.7-1.5-1.1-2.5-1c-1.8-0.1-3.4,1.3-3.5,3.2c0,0.1,0,0.1,0,0.2c0,0.9,0.3,1.8,1,2.5c0.7,0.7,1.6,1,2.5,1
	c0.9,0.1,1.8-0.3,2.5-1C63.7,22.3,64,21.4,64,20.5z"/>
<path fill="#EB661C" d="M99.6,10.5h8.7v2.2h0.1c0.6-0.8,1.4-1.5,2.3-1.9c1.1-0.6,2.3-0.9,3.5-0.8c1.2,0,2.4,0.2,3.5,0.8
	c0.9,0.5,1.7,1.2,2.2,2c0.5,0.8,0.9,1.7,1.1,2.7c0.2,1,0.3,2,0.3,3v12.3h-8.9V19.9c0.1-0.8-0.1-1.5-0.5-2.2
	c-0.4-0.4-0.9-0.7-1.4-0.6c-0.6,0-1.1,0.3-1.4,0.7c-0.4,0.6-0.6,1.3-0.6,2.1v10.8h-8.9L99.6,10.5z"/>
<path fill="#EB661C" d="M122.3,4.6c0-0.6,0.1-1.2,0.4-1.8c0.2-0.5,0.6-1,1-1.5c0.4-0.4,0.9-0.8,1.5-1c0.6-0.2,1.2-0.4,1.8-0.4
	c0.6,0,1.2,0.1,1.7,0.4c0.5,0.2,1,0.6,1.4,1c0.4,0.4,0.8,0.9,1,1.5c0.2,0.6,0.4,1.1,0.4,1.8c0,0.6-0.1,1.2-0.4,1.8
	c-0.2,0.5-0.6,1-1,1.4c-0.4,0.4-0.9,0.7-1.4,0.9c-0.5,0.2-1.1,0.4-1.7,0.4c-0.6,0-1.2-0.1-1.8-0.4c-0.5-0.2-1-0.5-1.5-0.9
	c-0.4-0.4-0.8-0.9-1-1.4C122.4,5.8,122.3,5.2,122.3,4.6z M122.4,10.5h8.9v20.3h-8.9V10.5z"/>
<path fill="#EB661C" d="M131.8,20.5c0-1.3,0.2-2.6,0.6-3.9c0.4-1.2,1-2.4,1.8-3.4c0.8-1,1.8-1.8,2.9-2.4c1.2-0.6,2.6-1,4-0.9
	c1,0,2,0.2,2.9,0.6c0.9,0.3,1.7,0.9,2.4,1.6h0.1V1.6h8.9v29.1h-8v-2.1h-0.1c-0.7,0.9-1.6,1.6-2.6,2c-1.1,0.5-2.4,0.7-3.6,0.7
	c-1.4,0-2.8-0.3-4-0.9c-1.1-0.6-2.1-1.4-2.9-2.5c-0.8-1-1.4-2.2-1.8-3.5C132,23.2,131.8,21.9,131.8,20.5z M140,20.5
	c0,0.9,0.3,1.8,0.9,2.5c0.6,0.7,1.5,1.1,2.5,1c0.9,0,1.9-0.3,2.5-1c0.6-0.7,1-1.5,0.9-2.4c0-1.8-1.5-3.3-3.3-3.4c-0.1,0-0.1,0-0.2,0
	c-0.9-0.1-1.8,0.3-2.5,1C140.3,18.8,140,19.7,140,20.5z"/>
<path fill="#EB661C" d="M167.2,17.9c0-0.5-0.2-1.1-0.6-1.4c-0.5-0.3-1.1-0.5-1.7-0.4c-0.8,0-1.6,0.2-2.3,0.5
	c-0.7,0.3-1.4,0.7-1.9,1.2l-4.4-4.4c1.3-1.2,2.8-2.1,4.4-2.7c1.7-0.7,3.4-1,5.2-1c1.6-0.1,3.3,0.2,4.8,0.8c1.2,0.5,2.2,1.2,3,2.2
	c0.7,1,1.3,2.1,1.5,3.3c0.3,1.3,0.4,2.7,0.4,4v10.7h-8.1v-1.6h-0.1c-0.5,0.8-1.3,1.4-2.2,1.7c-0.9,0.3-1.8,0.5-2.8,0.5
	c-0.8,0-1.7-0.1-2.4-0.4c-0.8-0.2-1.6-0.6-2.3-1.1c-0.7-0.5-1.3-1.2-1.7-2c-0.5-0.9-0.7-2-0.7-3c-0.1-1.2,0.3-2.5,1.1-3.5
	c0.8-0.9,1.7-1.6,2.8-2.1c1.2-0.5,2.5-0.9,3.8-1c1.4-0.2,2.7-0.3,4.1-0.3L167.2,17.9z M167.3,22.3c-1.1,0-2.1,0.1-3.2,0.4
	c-0.7,0.2-1.2,0.8-1.2,1.6c0,0.3,0.1,0.5,0.2,0.7c0.1,0.2,0.3,0.4,0.5,0.5c0.2,0.1,0.4,0.2,0.7,0.3c0.2,0.1,0.4,0.1,0.7,0.1
	c0.8,0,1.5-0.3,2-0.8c0.5-0.6,0.8-1.3,0.8-2.1v-0.7H167.3z"/>
<path fill="#EB661C" d="M175.5,20.5c0-1.3,0.2-2.6,0.6-3.9c0.4-1.2,1-2.4,1.8-3.4c0.8-1,1.8-1.8,2.9-2.4c1.2-0.6,2.6-1,4-0.9
	c1,0,2,0.2,2.9,0.6c0.9,0.3,1.7,0.9,2.4,1.6h0.1V1.6h8.9v29.1h-8v-2.1h-0.1c-0.7,0.9-1.6,1.6-2.6,2c-1.1,0.5-2.4,0.7-3.6,0.7
	c-1.4,0-2.8-0.3-4-0.9c-1.1-0.6-2.1-1.4-2.9-2.5c-0.8-1-1.4-2.2-1.8-3.5C175.7,23.2,175.5,21.9,175.5,20.5z M183.7,20.5
	c0,0.9,0.3,1.8,0.9,2.5c0.6,0.7,1.5,1.1,2.5,1c0.9,0,1.9-0.3,2.5-1c0.6-0.7,1-1.5,0.9-2.4c0-1.8-1.5-3.3-3.3-3.4c-0.1,0-0.1,0-0.2,0
	c-0.9-0.1-1.8,0.3-2.5,1C184,18.8,183.7,19.7,183.7,20.5z"/>
<path fill="#DD0B14" d="M85,5.6c-8.6,0-15.5,6.9-15.5,15.5c0,4.6,2,8.9,5.5,11.9v6.8l5.3-3.9c8.2,2.6,16.9-1.8,19.5-10
	c2.6-8.2-1.8-16.9-10-19.5C88.2,5.8,86.6,5.6,85,5.6z M85,31.6c-5.7,0-10.4-4.6-10.4-10.3h20.9C95.4,27,90.7,31.6,85,31.6z"/>
</svg>
