<?xml version="1.0" encoding="utf-8"?>
<!-- Generator: Adobe Illustrator 21.1.0, SVG Export Plug-In . SVG Version: 6.00 Build 0)  -->
<svg version="1.0" id="Capa_1" xmlns="http://www.w3.org/2000/svg" xmlns:xlink="http://www.w3.org/1999/xlink" x="0px" y="0px"
	 width="167px" height="48px" viewBox="0 0 167 48" enable-background="new 0 0 167 48" xml:space="preserve">
<path fill="#ED1E79" d="M30.7,9.3L19.6,36.6H17L6.6,5.8c-1-3.1-2.8-4.5-6.2-4.6V0.9h15.3c0,0.1,0,0.2,0,0.4c-4.2,0.1-4.7,2.2-3.7,5
	l8.8,26.3l9.7-23.8l-1.1-3c-1.2-3.1-2.5-4.5-5.4-4.5V0.9h15.3c0,0.1,0,0.2,0,0.4c-4.6,0.2-5.8,1.7-3.7,7.3l8.9,23.8l8-20.9
	c0.6-1.7,0.9-3.5,1-5.3c0-3.5-2.8-5-5.8-5c0-0.2,0-0.3,0-0.4h13.7v0.4c-3.7,0-6.1,4-8.3,9.8l-9.7,25.6H41L30.7,9.3z"/>
<path fill="#ED1E79" d="M43.7,37h-2.9L30.7,10.5L19.9,37h-3.2L6.2,6c-1-3-2.6-4.2-5.8-4.3H0V0.4h16.4l-0.3,0.6c0,0,0,0,0,0.1
	c0,0,0,0.1,0,0.1v0.4h-0.4c-1.7,0-2.8,0.5-3.4,1.2s-0.5,1.8,0,3.3l8.4,25.2L30,8.8L29,6c-1.2-3.2-2.5-4.3-5-4.3h-0.4V0.4H40
	l-0.3,0.6c0,0,0,0,0,0.1c0,0,0,0.1,0,0.1v0.4h-0.4c-2.2,0.1-3.4,0.5-3.9,1.3S34.9,5.6,36,8.4l8.5,22.7L52,11.4
	c0.6-1.7,0.9-3.4,1-5.2c0-4.2-4.1-4.5-5.3-4.5h-0.5l0.1-0.5c0,0,0-0.1,0-0.1c0-0.2,0-0.4,0.2-0.5l0.1-0.1h14.3v1.2h-0.4
	c-3,0-5.4,3-7.9,9.5L43.7,37z M41.3,36.1H43l1.2-3.1L35.2,8.7c-1.2-3.2-1.3-5-0.5-6.3c0.4-0.5,0.9-0.9,1.4-1.1h-9.5
	c1.6,0.8,2.4,2.3,3.2,4.3l1.3,3.5L41.3,36.1z M17.3,36.1h2l1.2-2.9l-9-26.9c-0.6-1.8-0.6-3.1,0.1-4c0.3-0.4,0.8-0.8,1.3-1H3.4
	C5.2,2,6.3,3.4,7,5.7L17.3,36.1z M50.7,1.3c2,0.7,3.4,2.7,3.2,4.9c0,0.7-0.1,1.4-0.2,2.1c1.3-3,3.1-5.8,5.4-7L50.7,1.3z"/>
<path fill="#ED1E79" d="M55.2,27.6c0-6.1,5.8-10,11.4-10c5.4,0,8.9,2.7,10.3,6.2c-0.1-2.5-0.1-6.2-0.1-7.3c0-5.2-3.9-6.7-7.3-6.7
	c-5.4,0-10.4,4.9-12.2,4.9c-0.3,0-0.6-0.1-0.9-0.3c-0.3-0.2-0.4-0.6-0.4-0.9c0-2.5,10.2-4.1,13.5-4.1c6.5,0,13,2.2,13,11.5V33
	c0,2.9,0.7,3.5,2.1,3.5c2.4,0,2.3-3.8,3-3.8s0.6,0.5,0.4,1.2c-0.3,0.9-1.2,3.1-4.8,3.1s-6-3.2-6.3-6.9c-1.6,5.1-5.3,6.9-10.3,6.9
	C61.2,37.2,55.2,33.7,55.2,27.6z M76.9,27.1c0.2-4.7-3.5-8.5-8.1-8.7c-3.1,0-7.4,2.5-7.4,9s3.6,8.8,7.6,8.8
	C73.6,35.7,77.1,31.8,76.9,27.1L76.9,27.1z"/>
<path fill="#ED1E79" d="M83.2,37.6c-3.1,0-5.7-2.3-6.5-5.7c-1.8,3.8-5.1,5.7-10.1,5.7c-5.8,0-11.9-3.8-11.9-10
	c0-6.5,6.2-10.5,11.9-10.5c4.3,0,7.9,1.7,9.8,4.7c0-1.4,0-3.2,0-5.4c0-5.7-4.8-6.3-6.8-6.3c-3.3,0-6.5,1.9-8.8,3.3
	c-1.5,0.9-2.6,1.6-3.4,1.6c-0.4,0-0.8-0.2-1.2-0.4l0,0c-0.3-0.3-0.5-0.8-0.5-1.3c0-3.1,11.1-4.5,14-4.5c8.9,0,13.4,4,13.4,12v12
	c0,3.1,0.9,3.1,1.7,3.1c1.2,0,1.6-1.1,2-2.5c0.2-0.7,0.4-1.3,0.9-1.3c0.3,0,0.6,0.1,0.8,0.4c0.2,0.4,0.2,1,0,1.4
	C88.1,35,87.2,37.6,83.2,37.6z M77.2,28.9l0.1,1.3c0.3,3.8,2.7,6.5,5.9,6.5h0.1c-0.8-0.5-1.2-1.7-1.2-3.7V20.9
	c0-6.1-2.9-9.7-8.6-10.8c1.9,0.9,3.8,2.7,3.8,6.4c0,3.2,0,5.6,0.1,7.2l0.1,2.5v-0.1c0,0.3,0,0.7,0,1C77.3,27.7,77.3,28.3,77.2,28.9
	L77.2,28.9z M66.6,18c-5.3,0-11,3.7-11,9.6c0,5.7,5.6,9.2,11,9.2c0.6,0,1.1,0,1.7-0.1c-2.6-0.2-7.3-1.6-7.3-9.2c0-6.4,3.9-9,7-9.4
	C67.5,18,67.1,18,66.6,18z M68.8,18.9c-2.4,0-7,1.8-7,8.6c0,7.2,4.5,8.3,7.1,8.3c4.4-0.4,7.7-4.2,7.5-8.6
	C76.6,22.8,73.2,19.1,68.8,18.9L68.8,18.9z M87.7,33.5c-0.1,0.2-0.1,0.4-0.2,0.5l-0.1,0.4c0.1-0.2,0.1-0.3,0.2-0.5
	C87.6,33.8,87.7,33.6,87.7,33.5L87.7,33.5z M56.8,14c0.2,0.1,0.4,0.2,0.6,0.2c1.1-0.3,2-0.8,2.9-1.4c1.6-1,3.3-1.9,5.1-2.7
	c-4.2,0.6-8.9,1.9-8.9,3.3C56.5,13.6,56.6,13.8,56.8,14z"/>
<path fill="#ED1E79" d="M119,27.6c0-6.1,5.8-10,11.4-10c5.4,0,8.9,2.7,10.3,6.2c-0.1-2.5-0.1-6.2-0.1-7.3c0-5.2-3.9-6.7-7.3-6.7
	c-5.4,0-10.4,4.9-12.2,4.9c-0.3,0-0.6-0.1-0.9-0.3c-0.3-0.2-0.4-0.6-0.4-0.9c0-2.5,10.2-4.1,13.5-4.1c6.5,0,13,2.2,13,11.5V33
	c0,2.9,0.7,3.5,2.1,3.5c2.4,0,2.4-3.8,3-3.8s0.6,0.5,0.4,1.2c-0.3,0.9-1.1,3.1-4.8,3.1s-6-3.2-6.3-6.9c-1.6,5.1-5.3,6.9-10.3,6.9
	C125,37.2,119,33.7,119,27.6z M140.8,27.1c0.2-4.7-3.5-8.5-8.1-8.7c-3.1,0-7.4,2.5-7.4,9s3.6,8.8,7.6,8.8
	C137.4,35.8,140.9,31.8,140.8,27.1L140.8,27.1z"/>
<path fill="#ED1E79" d="M147,37.6c-3.1,0-5.7-2.3-6.5-5.7c-1.8,3.8-5.1,5.7-10.1,5.7c-5.8,0-11.9-3.8-11.9-10
	c0-6.5,6.2-10.5,11.9-10.5c4.4,0,7.9,1.7,9.8,4.7c0-1.4,0-3.2,0-5.4c0-5.7-4.8-6.3-6.8-6.3c-3.3,0-6.5,1.9-8.8,3.3
	c-1.5,0.9-2.6,1.6-3.4,1.6c-0.4,0-0.8-0.2-1.2-0.4l0,0c-0.3-0.3-0.5-0.8-0.6-1.3c0-3.1,11.1-4.5,14-4.5c8.9,0,13.4,4,13.4,12v12
	c0,3.1,0.9,3.1,1.6,3.1c1.2,0,1.6-1.1,2-2.5c0.2-0.7,0.4-1.3,0.9-1.3c0.3,0,0.6,0.1,0.8,0.4c0.2,0.4,0.2,1,0,1.4
	C152,35,151,37.6,147,37.6z M141,28.9l0.1,1.3c0.3,3.8,2.7,6.5,5.9,6.5h0.1c-0.9-0.5-1.2-1.7-1.2-3.7V20.9c0-6.1-2.9-9.7-8.6-10.8
	c1.9,0.9,3.8,2.7,3.8,6.4c0,3.2,0,5.6,0.1,7.2l0.1,2.5v-0.1c0,0.3,0,0.7,0,1C141.2,27.7,141.1,28.3,141,28.9L141,28.9z M130.5,18
	c-5.3,0-11,3.7-11,9.6c0,5.7,5.6,9.2,11,9.2c0.6,0,1.1,0,1.7-0.1c-2.6-0.2-7.3-1.6-7.3-9.2c0-6.4,3.9-9,7-9.4
	C131.4,18,130.9,18,130.5,18z M132.7,18.9c-2.4,0-7,1.8-7,8.6c0,7.2,4.5,8.3,7.1,8.3c4.4-0.4,7.7-4.2,7.5-8.6
	C140.5,22.8,137,19.1,132.7,18.9L132.7,18.9z M151.6,33.5c-0.1,0.2-0.1,0.4-0.2,0.5l-0.1,0.4c0.1-0.2,0.1-0.3,0.2-0.5
	C151.5,33.8,151.5,33.6,151.6,33.5L151.6,33.5z M120.6,14c0.2,0.1,0.4,0.2,0.6,0.2c1.1-0.3,2-0.8,2.9-1.4c1.6-1,3.3-1.9,5.1-2.7
	c-4.2,0.6-8.9,1.9-8.9,3.3C120.4,13.6,120.5,13.8,120.6,14z"/>
<circle cx="160.3" cy="30.7" r="6.8"/>
<path fill="#FFFFFF" d="M158.3,28.3c0.3,0,0.6,0,0.9,0.1c0.2,0.1,0.4,0.2,0.6,0.3c0.2,0.1,0.3,0.3,0.4,0.5c0.1,0.2,0.1,0.4,0.1,0.7
	c0,0.2,0,0.5-0.1,0.7c-0.1,0.2-0.2,0.4-0.4,0.5c-0.2,0.2-0.4,0.3-0.6,0.3c-0.3,0.1-0.6,0.1-0.9,0.1h-0.8v1.9h-0.8v-5.2L158.3,28.3z
	 M158.3,31c0.2,0,0.4,0,0.5-0.1c0.1,0,0.3-0.1,0.4-0.2c0.1-0.1,0.2-0.2,0.2-0.3c0.1-0.1,0.1-0.3,0.1-0.4c0-0.3-0.1-0.6-0.3-0.8
	c-0.3-0.2-0.6-0.3-0.9-0.3h-0.8V31L158.3,31z"/>
<path fill="#FFFFFF" d="M164.1,32.9v0.6h-3.2v-5.2h3.2v0.6h-2.4v1.6h2v0.6h-2v1.7H164.1z"/>
<path fill="#ED1E79" d="M104.4,9.7c-5.2,0-9.1,3.4-10.7,8.6V17c0-4.1-2-7.3-5.7-7.3l0,0v2.6c0,0.2,0,0.4,0,0.7
	c0,0-0.2,27.1-0.2,27.6c-0.1,3.5,2.4,6.4,5.9,6.9v-4.8c0-3.3,0-9.5,0-14.1c1.7,6.6,5.8,8.6,10.4,8.6c6.8,0,13.3-5.5,13.3-14.2
	c0.2-7.1-5.3-13-12.4-13.3C104.9,9.7,104.7,9.7,104.4,9.7z M102.4,36.4c-3.5,0-8-3.2-8.7-11v-0.2l-0.1,0c-0.1-1.3-0.1-2.6,0.1-3.9
	c0.7-6.5,4.8-11,9.3-11c4,0,8.7,3.4,8.7,13S106.9,36.4,102.4,36.4L102.4,36.4z"/>
<path fill="#ED1E79" d="M94.2,48l-0.5-0.1c-3.7-0.5-6.4-3.6-6.3-7.3c0-0.6,0.2-27.4,0.2-27.6s0-0.4,0-0.6V9.2H88
	c3.5,0,5.9,2.6,6.2,6.8c1.8-4.1,5.8-6.8,10.3-6.8c7.4-0.1,13.4,5.8,13.5,13.2c0,0.2,0,0.4,0,0.6c0,9.2-7,14.6-13.8,14.6
	c-4.8,0-8.1-2.1-9.9-6.4c0,1.3,0,2.6,0,3.9c0,2.9,0,5.7,0,7.5L94.2,48z M88.4,12.3c0,0.2,0,0.4,0,0.7s-0.1,27-0.1,27.6
	c-0.1,3.1,2,5.7,5,6.4v-4.3c0-1.9,0-4.6,0-7.5c0-2.2,0-4.6,0-6.6V26l-0.1-0.6c-0.1-1.3-0.1-2.6,0.1-4c0-0.1,0-0.3,0-0.4l-0.1,0.2V17
	c0-4-1.9-6.6-4.9-6.9L88.4,12.3z M104.1,36.7L104.1,36.7c6.4,0,12.9-5.1,12.9-13.7c0.2-6.9-5.2-12.6-12.1-12.9c-0.2,0-0.4,0-0.5,0
	h-0.2c3.9,0.6,7.9,4.4,7.9,13.3C112.2,32.2,108.3,36,104.1,36.7z M94.2,25.4c0.6,7.3,4.7,10.6,8.3,10.6c4.3,0,8.9-3.3,8.9-12.5
	s-4.5-12.6-8.3-12.6c-4.4,0-8.3,4.6-8.9,10.6c-0.1,0.9-0.1,1.9-0.1,2.8l0.1-0.1L94.2,25.4z"/>
</svg>
