<?xml version="1.0" encoding="utf-8"?>
<!-- Generator: Adobe Illustrator 16.0.0, SVG Export Plug-In . SVG Version: 6.00 Build 0)  -->
<!DOCTYPE svg PUBLIC "-//W3C//DTD SVG 1.1//EN" "http://www.w3.org/Graphics/SVG/1.1/DTD/svg11.dtd">
<svg version="1.1" id="Capa_1" xmlns="http://www.w3.org/2000/svg" xmlns:xlink="http://www.w3.org/1999/xlink" x="0px" y="0px"
	 width="248px" height="40px" viewBox="0 0 248 40" enable-background="new 0 0 248 40" xml:space="preserve">
<path fill="#D82238" d="M191.1,14.5c0,4.3,0,8.7,0,13c0,1.6,0.7,2.4,2.301,2.4c1.6,0,2.199-0.801,2.199-2.5c0-3.9-0.1-7.8,0-11.7
	c0.2-1.5-0.5-3-1.8-3.8c-0.5-0.3-1.1-0.6-0.899-1.3c0.199-0.7,0.899-0.5,1.399-0.5c2.7-0.3,5.4-0.6,8.101-0.9c1-0.1,1.3,0.2,1.3,1.3
	c-0.101,5.6,0,11.2-0.101,16.8c0,1.3,0.2,2.2,1.7,2.4c0.601,0.1,0.9,0.399,0.8,1c-0.1,0.6-0.6,0.6-1,0.6h-23.6
	c-0.4,0-0.9,0.2-1.1-0.5c-0.101-0.5,0.1-1,0.6-1.1c0.1,0,0.2,0,0.3,0c1.5-0.2,1.7-1.101,1.7-2.4c0-7.2,0-14.3,0-21.5
	c0-1.5-0.4-2.6-1.9-3.1c-0.5-0.2-1-0.4-0.899-1.2c0.1-0.8,0.8-0.6,1.2-0.6c2.8-0.3,5.6-0.5,8.399-0.7c0.9-0.1,1.4,0.1,1.4,1.1
	c0,4.4,0,8.7,0,13.1H191.1V14.5z"/>
<path fill="#D82238" d="M146,28.7c-1.2,0.7-2.2,1.3-3.3,1.899c-0.8,0.5-1.7,0.801-2.601,1c-4.899,1.101-7.699-1.1-7.699-6.1
	c0-3.5-0.101-7,0-10.5c0.199-1.3-0.5-2.6-1.7-3.1c-0.5-0.3-1.2-0.5-1-1.4s0.899-0.4,1.3-0.4c2.4-0.3,4.9-0.6,7.4-0.8
	c2-0.2,2-0.2,2,1.8c0,4.3,0,8.6,0,13c0,3,1,3.801,3.899,3.2c1-0.2,1.3-0.6,1.3-1.6c-0.1-3.5-0.1-7.1,0-10.6c0.101-1.2-0.5-2.4-1.6-3
	c-0.5-0.3-1.3-0.5-1.1-1.3c0.199-0.8,1-0.5,1.6-0.6c2.5-0.3,5-0.5,7.5-0.8c1.3-0.2,1.7,0.3,1.7,1.6c-0.101,5.1,0,10.2,0,15.3
	c0,1.4,0.2,2.5,1.7,2.8c0.6,0.101,0.699,0.5,0.699,1c0,0.7-0.6,0.601-1,0.601c-2.5,0.399-5,0.7-7.5,1.1
	c-1.399,0.2-1.899-0.2-1.699-1.6C146,29.7,146,29.2,146,28.7z"/>
<path fill="#D82238" d="M24.5,27.7c-0.3,3.6-0.3,3.6-3.9,3.6c-6.4,0-12.8,0-19.3,0c-0.5,0-1.2,0.4-1.3-0.6S0.4,29.6,1.1,29.6
	C2.9,29.4,3,28,3,26.7c0-2.7,0-5.3,0-8V7.6c0-1.6-0.2-3-2.2-3.2C0.1,4.3,0,3.9,0,3.3c0.1-0.8,0.6-0.5,1-0.5c4.4,0,8.8,0,13.3,0
	c0.5,0,1-0.2,1.1,0.6c0.1,0.8-0.4,1-1,1c-1.7,0.1-2.2,1.1-2.2,2.7c0,6.5,0,12.9,0,19.4c0,2.1,0.4,2.5,2.6,2.7
	c2.5,0.2,4.5-0.601,5.7-3c0.8-1.601,1.8-3.101,2.4-4.8c0.2-0.601,0.8-1,1.4-0.9h0.1c0.8,0.2,0.4,0.9,0.4,1.3
	c-0.1,1.101-0.1,2.101-0.2,3.4L24.5,27.7z"/>
<path fill="#D82238" d="M225.6,27.7c-2.8,3.6-8.3,5.1-13.1,3.5c-4.1-1.4-6.4-5-6.6-9.9C205.4,12.5,212,9,219.2,9.2
	c1.5,0,3.1,0.3,4.5,0.9c1.6,0.7,2.399,2.3,2.1,4c-0.3,1.5-1.8,2.5-3.3,2.4c-1.8-0.1-2.7-1-3.2-3c-0.2-0.9,0.2-2.3-1.3-2.4
	c-1.4-0.2-2.8,0.6-3.3,1.9c-1.5,4.2-1.601,8.4,0.5,12.4c1.1,2,3.2,2.399,5.399,2.3c1.7-0.101,3.4-0.601,5-1.4
	C225.7,26.7,225.7,27.2,225.6,27.7z"/>
<path fill="#D82238" d="M199.6,0c2.2-0.1,4,1.6,4.101,3.8c0,0.1,0,0.2,0,0.3c-0.101,2.2-2,4-4.2,3.9c-0.1,0-0.2,0-0.3,0
	c-2.3,0-4.101-1.8-4.101-4.1c0,0,0,0,0-0.1C195.1,1.5,197-0.1,199.6,0z"/>
<path fill="#D82238" d="M149.1,3.7c0.2,1.1-0.6,2.2-1.699,2.4c-2.4,0.6-4.801,1-7.2,1.5c-0.3,0.1-0.601,0.1-0.8-0.3
	C139.2,7,139.3,6.6,139.6,6.4c1.601-1.6,3.301-3.3,4.9-4.8c1.1-1,2.7-1,3.8,0C148.9,2.1,149.2,2.9,149.1,3.7L149.1,3.7z"/>
<path fill="#D82238" d="M83.9,29.6c-1-0.199-1.5-1-2-1.699c-1.9-2.9-3.5-6-5-9.2c-0.4-0.9-0.6-1.5,0.7-1.9c1.7-0.5,3-1.9,3.5-3.6
	c1.4-4.6-0.6-8.3-5.3-9.6c-0.9-0.3-1.8-0.4-2.7-0.5C67.2,2.5,61.2,3,55.2,2.8c-0.5,0-0.9-0.1-0.9,0.6c0,0.7,0.2,1,0.8,1
	c1.9,0.2,2.1,1.4,2.1,2.9c0,3.2,0,6.4,0,9.5c0,3.3,0,6.7,0,10c0,1.5-0.3,2.5-2,2.7c-0.7,0.1-0.9,0.5-0.9,1.1
	c0,0.601,0.6,0.601,1,0.601h12.8c0.5,0,1,0.1,1.1-0.7c0.1-0.8-0.4-0.9-0.9-1c-1.7-0.2-2-1.3-2-2.7c0-2,0-4,0-6
	c0-0.5-0.5-1.4,0.6-1.6c1.1-0.2,1.2,0.5,1.4,1.2c1.3,3.4,2.8,6.7,4.7,9.9c0.3,0.601,0.9,1,1.5,1c3-0.1,6,0,8.9,0
	c0.4,0,0.9,0.101,0.9-0.5C84.3,30.2,84.7,29.8,83.9,29.6z M71.9,14.2c-0.3,1.4-0.8,2.6-2.4,3.1C67,18,66.4,17.5,66.4,15v-3.8
	c0-1.6,0-3.3,0-4.9c0-0.9,0.3-1.2,1.1-1.3c2.7-0.4,4.1,0.6,4.5,3.3C72.3,10.2,72.3,12.2,71.9,14.2L71.9,14.2z"/>
<path fill="#D82238" d="M129.5,15.1c-0.8-3.4-3.7-5.8-7.2-5.9c-2.8-0.1-5,1.1-7.3,3c0-0.5-0.1-0.8-0.1-1c0.1-2,0-2.1-1.9-1.9
	c-2.4,0.2-4.8,0.5-7.2,0.8c-0.5,0.1-1.1-0.2-1.3,0.4s0.4,1.1,0.9,1.4c1.2,0.7,1.9,2.1,1.8,3.5c-0.1,6.9,0,13.8,0,20.7
	c0,1.2-0.3,2-1.6,2.2c-0.6,0.101-1.1,0.3-1,1.101c0.1,0.899,0.8,0.6,1.3,0.6c3.5,0,7.1,0,10.6,0c0.5,0,1.2,0.4,1.3-0.6
	c0.1-1-0.5-1-1.1-1.101c-1.2-0.2-1.6-0.8-1.5-1.899c0-0.601,0-1.101,0-1.7c0-0.9-0.4-2.101,0-2.7c0.6-0.7,1.8-0.1,2.8-0.1
	c5.8,0,9.8-2.5,11.3-7.5C130.3,21.4,130.4,18.1,129.5,15.1z M121.2,27.5c-0.4,1.7-2.1,2.8-3.8,2.4c-0.3-0.101-0.6-0.2-0.8-0.301
	c-0.8-0.3-1.4-1.1-1.3-2c0.1-2.1,0-4.199,0-6.3c0-2.1,0.1-4.1,0-6.1c0-1,0.4-1.3,1.3-1.5c2.6-0.5,4.3,0.4,4.9,3
	C122.2,20.2,122.2,23.9,121.2,27.5z"/>
<path fill="#D82238" d="M180.4,17c-0.7-5.5-4.4-8.5-9.301-7.8c-2,0.4-3.899,1.4-5.399,2.8c0-3.6-0.101-6.9,0-10.3
	c0-1.3-0.4-1.6-1.601-1.5C161.4,0.5,158.7,0.7,156,0.9c-0.4,0-1-0.1-1.1,0.6c-0.101,0.5,0.199,1,0.8,1.2c1.7,0.5,2,1.8,2,3.4
	c-0.101,7.2,0,14.5-0.101,21.7c-0.1,0.9,0.4,1.8,1.301,2.101c3.399,1.6,7.199,2.3,10.899,1.899c5.8-0.399,9.4-3.6,10.4-9.3
	C180.6,20.6,180.6,18.8,180.4,17z M171.7,27.2c-0.2,1.7-1.8,2.899-3.5,2.7c-0.3,0-0.601-0.101-0.9-0.301c-1-0.199-1.7-1.199-1.6-2.3
	c0.1-2,0-4,0-6s0.1-4.2,0-6.3c0-1,0.399-1.2,1.2-1.4c2.6-0.6,4.399,0.4,5,3C172.6,20.1,172.6,23.7,171.7,27.2L171.7,27.2z"/>
<path fill="#D82238" d="M47.2,29.3c0-0.5-0.5-0.5-0.8-0.5c-1.6-0.1-2-1.1-2-2.5c0-3.5,0-7.1,0-10.6s-1.5-5.3-5-6
	C36.1,8.9,32.6,9,29.3,9.9c-1.2,0.2-2.2,0.9-3,1.8c-1.1,1.3-1,3.2,0.3,4.4c0.1,0,0.1,0.1,0.2,0.1c1.7,1.1,4,0.6,5.1-1.1
	c0.3-0.4,0.4-0.8,0.5-1.3s0.2-0.9,0.2-1.4c0.1-1.2,0.8-1.4,1.8-1.2c0.9,0.2,1.6,0.9,1.7,1.9c0.2,1.3,0.2,2.6,0.3,3.8
	c0.1,1.4-0.3,2.1-1.8,2.4c-2.2,0.3-4.4,1-6.4,2c-1.7,0.7-2.9,2.2-3.2,4c-0.1,0.7-0.1,1.5,0,2.2c0.3,2.1,1.9,3.8,4,4.1
	c2.6,0.5,5,0.301,7-1.6c0.3-0.3,0.4-0.9,1-0.2c2.2,2.4,7.2,2.7,9.7,0.7C47,30.2,47.2,29.7,47.2,29.3z M35.3,28.3
	c-0.8,0.3-1.7-0.1-2.1-0.899c-0.8-1.601-0.8-3.601,0-5.2c0.5-1.101,1.7-1,2.7-1c0.5,0,0.4,0.5,0.4,0.899c0,0.801,0,1.601,0,2.5
	c0,0.9,0,1.4,0,2.101S36.2,28.1,35.3,28.3L35.3,28.3z"/>
<path fill="#D82238" d="M248,29.3c0-0.5-0.4-0.5-0.8-0.5c-1.601-0.1-2-1.1-2-2.6c0-3.601,0-7.2,0-10.8c0-3.2-1.5-5.1-4.601-5.8
	C237.7,9,234.8,9,231.9,9.5c-1.4,0.2-2.7,0.6-3.9,1.4c-1.2,0.8-1.8,2.3-1.4,3.8c0.4,1.5,1.601,1.9,3,1.9c1.9,0,3-0.6,3.5-2.1
	c0.2-0.7,0.301-1.5,0.4-2.3c0-0.6,0.5-1.2,1.2-1.1c0.1,0,0.1,0,0.2,0c1.1-0.1,2,0.8,2.1,1.9c0.2,1.5,0.3,3.1,0.2,4.6
	c0.1,0.9-0.3,1.2-1.101,1.4c-2.3,0.4-4.5,1.1-6.6,2c-1.9,0.9-3.5,2.2-3.6,4.6c-0.101,0.7-0.101,1.5,0,2.2
	c0.399,1.9,1.899,3.4,3.8,3.8c2.6,0.601,5.1,0.4,7.2-1.5c0.199-0.199,0.399-1,1-0.3c2.3,2.4,7.1,2.7,9.6,0.7
	C247.9,30.2,248.1,29.7,248,29.3z M236.1,28.3c-0.8,0.2-1.699-0.2-2.1-1c-0.7-1.6-0.7-3.5,0-5.1c0.5-1.101,1.6-1.101,2.6-1.101
	c0.601,0,0.5,0.601,0.5,0.9c0,0.8,0,1.6,0,2.5c0,0.7,0,1.3,0,2C237.3,27.4,237,28.1,236.1,28.3L236.1,28.3z"/>
<path fill="#D82238" d="M93,19.5c3.6,0.1,7.2,0,10.8,0c1,0,1.2-0.3,1.2-1.2c-0.3-5.8-3.5-9-9.4-9.2c-4.6-0.3-8.9,2.3-10.8,6.5
	c-1.9,4.5-0.9,10.6,2.2,13.5c4.2,3.9,13.3,3.301,16.9-1c0.4-0.6,0.5-1.3,0.3-2c-1.5,0.801-3.2,1.301-5,1.4c-4.4,0.2-6.6-1.2-7.3-5.6
	c0-0.301-0.1-0.601-0.1-0.9C91.5,20,91.7,19.5,93,19.5z M91.9,15.2c0.1-1,0.4-1.9,0.8-2.8c0.4-0.9,1.3-1.5,2.2-1.4
	c1,0.1,1.8,0.8,1.9,1.7c0.3,1.3,0.5,2.7,0.4,4c0.1,0.6-0.3,0.8-0.9,0.8c-0.8,0-1.5,0.1-2.3,0.1C91.6,17.7,91.6,17.7,91.9,15.2
	L91.9,15.2z"/>
</svg>
