<?xml version="1.0" encoding="utf-8"?>
<!-- Generator: Adobe Illustrator 16.0.0, SVG Export Plug-In . SVG Version: 6.00 Build 0)  -->
<!DOCTYPE svg PUBLIC "-//W3C//DTD SVG 1.1//EN" "http://www.w3.org/Graphics/SVG/1.1/DTD/svg11.dtd">
<svg version="1.1" id="Capa_1" xmlns="http://www.w3.org/2000/svg" xmlns:xlink="http://www.w3.org/1999/xlink" x="0px" y="0px"
	 width="216px" height="42px" viewBox="0 0 216 42" enable-background="new 0 0 216 42" xml:space="preserve">
<path fill="#FFEA54" d="M12.4,15.6c2.1,0,2.7,1.2,2.8,3.8H9.3C9.5,16.9,10.2,15.6,12.4,15.6z M23.7,23.8v-2.6
	c0-7.9-3.9-11.8-11.5-11.8C4.8,9.5,0,13.7,0,20.2V23c0,7.3,4.8,10.8,13.6,10.8c3.5,0.101,7-0.7,10.1-2.5L20.9,26
	c-2.2,1-4.5,1.5-6.9,1.5c-2.8,0-4.3-1-4.6-3.7H23.7z"/>
<polygon fill="#FFEA54" points="23.3,33.2 38.1,33.2 38.1,27.8 35.3,27.8 35.3,0.2 23,0.2 23,5.9 25.9,5.9 25.9,27.8 23.3,27.8 "/>
<path fill="#EC0B43" d="M59.7,6.9h2.7c2.4,0,3.9,1.2,3.9,3.5v1.4c0.1,2-1.4,3.7-3.4,3.8c-0.2,0-0.3,0-0.5,0h-2.7V6.9z M46.1,33.2
	h16.8v-5.5h-3.2V21.6h3.7c8.2,0,13.6-2.899,13.6-9.7v-1.5c0-6.8-5-10.2-13.6-10.2H46.1v5.6h3.1v21.9h-3.1V33.2z"/>
<path fill="#EC0B43" d="M88.1,27.5c-2.2,0-3.1-1.7-3.1-4.5v-2.6c0-2.8,0.9-4.6,3.1-4.6c2.2,0,3.1,1.8,3.1,4.6V23
	C91.2,25.8,90.4,27.5,88.1,27.5z M88.1,33.8c7.5,0,12.6-4.2,12.6-10.6v-3c0-6.4-5-10.7-12.6-10.7c-7.2,0-12.6,4.3-12.6,10.7v3
	C75.5,29.6,80.9,33.8,88.1,33.8z"/>
<path fill="#EC0B43" d="M115.3,16.3c2,0,3.101,1.4,3.101,4.3v2.2c0,3-1.2,4.5-3.101,4.5c-1.899,0-3.3-1.2-3.3-4.3v-3.1
	C112.2,17.4,113.5,16.3,115.3,16.3z M100.4,41.8h14.2v-5.3H112v-6.3c1.5,2.3,4.2,3.6,6.9,3.399c4,0,9-2.6,9-10.899v-2.5
	c0-7.6-4.4-10.8-8.7-10.8c-3.3-0.1-6.3,1.7-7.9,4.6c-0.3-1.9-0.899-4-1.3-4h-9.9v5.6h2.6v20.8h-2.3V41.8z"/>
<path fill="#EC0B43" d="M212.9,9.6c-3.801,0-5.7,2.5-6.5,5.6c-0.4-2.1-1.101-5.1-1.601-5.1H194.9v5.6h2.6v12.1h-3.8v-7.7
	c0-6.9-4.101-10.5-12.3-10.5c-3.801-0.1-7.5,0.6-10.9,2.2l2.4,6.2c2.3-1,4.699-1.5,7.1-1.5c3,0,4.2,1.2,4.3,3.9
	c-1.5-0.7-3.2-1.1-4.8-1c-5.9,0-9.8,2.2-9.8,6.6v0.9c0,0.3,0,0.6,0.1,0.899h-2.2V0.2h-12.3v5.6h3v21.9h-4.7V10.1H141.9v5.6h2.3V23.6
	c0,1.801-0.9,3-2.7,3s-2.6-1.399-2.6-3.699V10.1h-11.5v5.6h2.199v8.7c0,6.699,3.5,9.399,8.101,9.399c3.1,0.101,6-1.8,7.2-4.6
	c0.399,1.8,1,4.1,1.399,4.1h24.2V30c1.2,2.4,3.9,3.7,7.4,3.7c3.8,0,5.899-1.8,7.1-4.2c0.3,1.8,0.8,3.7,1.3,3.7H209.4v-5.5h-2.5v-6
	c0.1-3.2,2.5-4.2,4.6-4.2c1,0,2,0.1,3,0.4l1.1-7.8C214.7,9.8,213.8,9.6,212.9,9.6z M181.5,27.5c-1.6,0-2.5-0.7-2.5-1.6v-0.5
	c0-0.801,0.7-1.601,2.4-1.601c1.1-0.1,2.1,0.2,3,0.8C184.3,26.2,183,27.5,181.5,27.5z"/>
</svg>
