<?xml version="1.0" encoding="utf-8"?>
<!-- Generator: Adobe Illustrator 21.1.0, SVG Export Plug-In . SVG Version: 6.00 Build 0)  -->
<svg version="1.0" id="Capa_1" xmlns="http://www.w3.org/2000/svg" xmlns:xlink="http://www.w3.org/1999/xlink" x="0px" y="0px"
	 width="248px" height="40px" viewBox="0 0 248 40" enable-background="new 0 0 248 40" xml:space="preserve">
<path fill="#FFFFFF" d="M191.1,14.5c0,4.3,0,8.7,0,13c0,1.6,0.7,2.4,2.3,2.4s2.2-0.8,2.2-2.5c0-3.9-0.1-7.8,0-11.7
	c0.2-1.5-0.5-3-1.8-3.8c-0.5-0.3-1.1-0.6-0.9-1.3s0.9-0.5,1.4-0.5c2.7-0.3,5.4-0.6,8.1-0.9c1-0.1,1.3,0.2,1.3,1.3
	c-0.1,5.6,0,11.2-0.1,16.8c0,1.3,0.2,2.2,1.7,2.4c0.6,0.1,0.9,0.4,0.8,1s-0.6,0.6-1,0.6h-23.6c-0.4,0-0.9,0.2-1.1-0.5
	c-0.1-0.5,0.1-1,0.6-1.1c0.1,0,0.2,0,0.3,0c1.5-0.2,1.7-1.1,1.7-2.4c0-7.2,0-14.3,0-21.5c0-1.5-0.4-2.6-1.9-3.1
	c-0.5-0.2-1-0.4-0.9-1.2s0.8-0.6,1.2-0.6c2.8-0.3,5.6-0.5,8.4-0.7c0.9-0.1,1.4,0.1,1.4,1.1c0,4.4,0,8.7,0,13.1H191.1z"/>
<path fill="#FFFFFF" d="M146,28.7c-1.2,0.7-2.2,1.3-3.3,1.9c-0.8,0.5-1.7,0.8-2.6,1c-4.9,1.1-7.7-1.1-7.7-6.1c0-3.5-0.1-7,0-10.5
	c0.2-1.3-0.5-2.6-1.7-3.1c-0.5-0.3-1.2-0.5-1-1.4s0.9-0.4,1.3-0.4c2.4-0.3,4.9-0.6,7.4-0.8c2-0.2,2-0.2,2,1.8c0,4.3,0,8.6,0,13
	c0,3,1,3.8,3.9,3.2c1-0.2,1.3-0.6,1.3-1.6c-0.1-3.5-0.1-7.1,0-10.6c0.1-1.2-0.5-2.4-1.6-3c-0.5-0.3-1.3-0.5-1.1-1.3s1-0.5,1.6-0.6
	c2.5-0.3,5-0.5,7.5-0.8c1.3-0.2,1.7,0.3,1.7,1.6c-0.1,5.1,0,10.2,0,15.3c0,1.4,0.2,2.5,1.7,2.8c0.6,0.1,0.7,0.5,0.7,1
	c0,0.7-0.6,0.6-1,0.6c-2.5,0.4-5,0.7-7.5,1.1c-1.4,0.2-1.9-0.2-1.7-1.6C146,29.7,146,29.2,146,28.7z"/>
<path fill="#FFFFFF" d="M24.5,27.7c-0.3,3.6-0.3,3.6-3.9,3.6c-6.4,0-12.8,0-19.3,0c-0.5,0-1.2,0.4-1.3-0.6s0.4-1.1,1.1-1.1
	C2.9,29.4,3,28,3,26.7c0-2.7,0-5.3,0-8V7.6c0-1.6-0.2-3-2.2-3.2C0.1,4.3,0,3.9,0,3.3c0.1-0.8,0.6-0.5,1-0.5c4.4,0,8.8,0,13.3,0
	c0.5,0,1-0.2,1.1,0.6s-0.4,1-1,1c-1.7,0.1-2.2,1.1-2.2,2.7c0,6.5,0,12.9,0,19.4c0,2.1,0.4,2.5,2.6,2.7c2.5,0.2,4.5-0.6,5.7-3
	c0.8-1.6,1.8-3.1,2.4-4.8c0.2-0.6,0.8-1,1.4-0.9c0,0,0.1,0,0.1,0c0.8,0.2,0.4,0.9,0.4,1.3c-0.1,1.1-0.1,2.1-0.2,3.4L24.5,27.7z"/>
<path fill="#FFFFFF" d="M225.6,27.7c-2.8,3.6-8.3,5.1-13.1,3.5c-4.1-1.4-6.4-5-6.6-9.9C205.4,12.5,212,9,219.2,9.2
	c1.5,0,3.1,0.3,4.5,0.9c1.6,0.7,2.4,2.3,2.1,4c-0.3,1.5-1.8,2.5-3.3,2.4c-1.8-0.1-2.7-1-3.2-3c-0.2-0.9,0.2-2.3-1.3-2.4
	c-1.4-0.2-2.8,0.6-3.3,1.9c-1.5,4.2-1.6,8.4,0.5,12.4c1.1,2,3.2,2.4,5.4,2.3c1.7-0.1,3.4-0.6,5-1.4
	C225.7,26.7,225.7,27.2,225.6,27.7z"/>
<path fill="#FFFFFF" d="M199.6,0c2.2-0.1,4,1.6,4.1,3.8c0,0.1,0,0.2,0,0.3c-0.1,2.2-2,4-4.2,3.9c-0.1,0-0.2,0-0.3,0
	c-2.3,0-4.1-1.8-4.1-4.1c0,0,0,0,0-0.1C195.1,1.5,197-0.1,199.6,0z"/>
<path fill="#FFFFFF" d="M149.1,3.7c0.2,1.1-0.6,2.2-1.7,2.4c-2.4,0.6-4.8,1-7.2,1.5c-0.3,0.1-0.6,0.1-0.8-0.3
	c-0.2-0.3-0.1-0.7,0.2-0.9c1.6-1.6,3.3-3.3,4.9-4.8c1.1-1,2.7-1,3.8,0C148.9,2.1,149.2,2.9,149.1,3.7L149.1,3.7z"/>
<path fill="#FFFFFF" d="M83.9,29.6c-1-0.2-1.5-1-2-1.7c-1.9-2.9-3.5-6-5-9.2c-0.4-0.9-0.6-1.5,0.7-1.9c1.7-0.5,3-1.9,3.5-3.6
	c1.4-4.6-0.6-8.3-5.3-9.6c-0.9-0.3-1.8-0.4-2.7-0.5c-5.9-0.6-11.9-0.1-17.9-0.3c-0.5,0-0.9-0.1-0.9,0.6s0.2,1,0.8,1
	c1.9,0.2,2.1,1.4,2.1,2.9c0,3.2,0,6.4,0,9.5c0,3.3,0,6.7,0,10c0,1.5-0.3,2.5-2,2.7c-0.7,0.1-0.9,0.5-0.9,1.1s0.6,0.6,1,0.6h12.8
	c0.5,0,1,0.1,1.1-0.7s-0.4-0.9-0.9-1c-1.7-0.2-2-1.3-2-2.7c0-2,0-4,0-6c0-0.5-0.5-1.4,0.6-1.6s1.2,0.5,1.4,1.2
	c1.3,3.4,2.8,6.7,4.7,9.9c0.3,0.6,0.9,1,1.5,1c3-0.1,6,0,8.9,0c0.4,0,0.9,0.1,0.9-0.5S84.7,29.8,83.9,29.6z M71.9,14.2
	c-0.3,1.4-0.8,2.6-2.4,3.1c-2.5,0.7-3.1,0.2-3.1-2.3v-3.8c0-1.6,0-3.3,0-4.9c0-0.9,0.3-1.2,1.1-1.3c2.7-0.4,4.1,0.6,4.5,3.3
	C72.3,10.2,72.3,12.2,71.9,14.2L71.9,14.2z"/>
<path fill="#FFFFFF" d="M129.5,15.1c-0.8-3.4-3.7-5.8-7.2-5.9c-2.8-0.1-5,1.1-7.3,3c0-0.5-0.1-0.8-0.1-1c0.1-2,0-2.1-1.9-1.9
	c-2.4,0.2-4.8,0.5-7.2,0.8c-0.5,0.1-1.1-0.2-1.3,0.4s0.4,1.1,0.9,1.4c1.2,0.7,1.9,2.1,1.8,3.5c-0.1,6.9,0,13.8,0,20.7
	c0,1.2-0.3,2-1.6,2.2c-0.6,0.1-1.1,0.3-1,1.1c0.1,0.9,0.8,0.6,1.3,0.6c3.5,0,7.1,0,10.6,0c0.5,0,1.2,0.4,1.3-0.6s-0.5-1-1.1-1.1
	c-1.2-0.2-1.6-0.8-1.5-1.9c0-0.6,0-1.1,0-1.7c0-0.9-0.4-2.1,0-2.7c0.6-0.7,1.8-0.1,2.8-0.1c5.8,0,9.8-2.5,11.3-7.5
	C130.3,21.4,130.4,18.1,129.5,15.1z M121.2,27.5c-0.4,1.7-2.1,2.8-3.8,2.4c-0.3-0.1-0.6-0.2-0.8-0.3c-0.8-0.3-1.4-1.1-1.3-2
	c0.1-2.1,0-4.2,0-6.3s0.1-4.1,0-6.1c0-1,0.4-1.3,1.3-1.5c2.6-0.5,4.3,0.4,4.9,3C122.2,20.2,122.2,23.9,121.2,27.5z"/>
<path fill="#FFFFFF" d="M180.4,17c-0.7-5.5-4.4-8.5-9.3-7.8c-2,0.4-3.9,1.4-5.4,2.8c0-3.6-0.1-6.9,0-10.3c0-1.3-0.4-1.6-1.6-1.5
	c-2.7,0.3-5.4,0.5-8.1,0.7c-0.4,0-1-0.1-1.1,0.6c-0.1,0.5,0.2,1,0.8,1.2c1.7,0.5,2,1.8,2,3.4c-0.1,7.2,0,14.5-0.1,21.7
	c-0.1,0.9,0.4,1.8,1.3,2.1c3.4,1.6,7.2,2.3,10.9,1.9c5.8-0.4,9.4-3.6,10.4-9.3C180.6,20.6,180.6,18.8,180.4,17z M171.7,27.2
	c-0.2,1.7-1.8,2.9-3.5,2.7c-0.3,0-0.6-0.1-0.9-0.3c-1-0.2-1.7-1.2-1.6-2.3c0.1-2,0-4,0-6s0.1-4.2,0-6.3c0-1,0.4-1.2,1.2-1.4
	c2.6-0.6,4.4,0.4,5,3C172.6,20.1,172.6,23.7,171.7,27.2L171.7,27.2z"/>
<path fill="#FFFFFF" d="M47.2,29.3c0-0.5-0.5-0.5-0.8-0.5c-1.6-0.1-2-1.1-2-2.5c0-3.5,0-7.1,0-10.6s-1.5-5.3-5-6
	C36.1,8.9,32.6,9,29.3,9.9c-1.2,0.2-2.2,0.9-3,1.8c-1.1,1.3-1,3.2,0.3,4.4c0.1,0,0.1,0.1,0.2,0.1c1.7,1.1,4,0.6,5.1-1.1
	c0.3-0.4,0.4-0.8,0.5-1.3c0.1-0.5,0.2-0.9,0.2-1.4c0.1-1.2,0.8-1.4,1.8-1.2c0.9,0.2,1.6,0.9,1.7,1.9c0.2,1.3,0.2,2.6,0.3,3.8
	c0.1,1.4-0.3,2.1-1.8,2.4c-2.2,0.3-4.4,1-6.4,2c-1.7,0.7-2.9,2.2-3.2,4c-0.1,0.7-0.1,1.5,0,2.2c0.3,2.1,1.9,3.8,4,4.1
	c2.6,0.5,5,0.3,7-1.6c0.3-0.3,0.4-0.9,1-0.2c2.2,2.4,7.2,2.7,9.7,0.7C47,30.2,47.2,29.7,47.2,29.3z M35.3,28.3
	c-0.8,0.3-1.7-0.1-2.1-0.9c-0.8-1.6-0.8-3.6,0-5.2c0.5-1.1,1.7-1,2.7-1c0.5,0,0.4,0.5,0.4,0.9c0,0.8,0,1.6,0,2.5s0,1.4,0,2.1
	S36.2,28.1,35.3,28.3L35.3,28.3z"/>
<path fill="#FFFFFF" d="M248,29.3c0-0.5-0.4-0.5-0.8-0.5c-1.6-0.1-2-1.1-2-2.6c0-3.6,0-7.2,0-10.8c0-3.2-1.5-5.1-4.6-5.8
	c-2.9-0.6-5.8-0.6-8.7-0.1c-1.4,0.2-2.7,0.6-3.9,1.4c-1.2,0.8-1.8,2.3-1.4,3.8c0.4,1.5,1.6,1.9,3,1.9c1.9,0,3-0.6,3.5-2.1
	c0.2-0.7,0.3-1.5,0.4-2.3c0-0.6,0.5-1.2,1.2-1.1c0.1,0,0.1,0,0.2,0c1.1-0.1,2,0.8,2.1,1.9c0.2,1.5,0.3,3.1,0.2,4.6
	c0.1,0.9-0.3,1.2-1.1,1.4c-2.3,0.4-4.5,1.1-6.6,2c-1.9,0.9-3.5,2.2-3.6,4.6c-0.1,0.7-0.1,1.5,0,2.2c0.4,1.9,1.9,3.4,3.8,3.8
	c2.6,0.6,5.1,0.4,7.2-1.5c0.2-0.2,0.4-1,1-0.3c2.3,2.4,7.1,2.7,9.6,0.7C247.9,30.2,248.1,29.7,248,29.3z M236.1,28.3
	c-0.8,0.2-1.7-0.2-2.1-1c-0.7-1.6-0.7-3.5,0-5.1c0.5-1.1,1.6-1.1,2.6-1.1c0.6,0,0.5,0.6,0.5,0.9c0,0.8,0,1.6,0,2.5c0,0.7,0,1.3,0,2
	C237.3,27.4,237,28.1,236.1,28.3L236.1,28.3z"/>
<path fill="#FFFFFF" d="M93,19.5c3.6,0.1,7.2,0,10.8,0c1,0,1.2-0.3,1.2-1.2c-0.3-5.8-3.5-9-9.4-9.2c-4.6-0.3-8.9,2.3-10.8,6.5
	c-1.9,4.5-0.9,10.6,2.2,13.5c4.2,3.9,13.3,3.3,16.9-1c0.4-0.6,0.5-1.3,0.3-2c-1.5,0.8-3.2,1.3-5,1.4c-4.4,0.2-6.6-1.2-7.3-5.6
	c0-0.3-0.1-0.6-0.1-0.9C91.5,20,91.7,19.5,93,19.5z M91.9,15.2c0.1-1,0.4-1.9,0.8-2.8c0.4-0.9,1.3-1.5,2.2-1.4
	c1,0.1,1.8,0.8,1.9,1.7c0.3,1.3,0.5,2.7,0.4,4c0.1,0.6-0.3,0.8-0.9,0.8c-0.8,0-1.5,0.1-2.3,0.1C91.6,17.7,91.6,17.7,91.9,15.2
	L91.9,15.2z"/>
</svg>
