<?xml version="1.0" encoding="utf-8"?>
<!-- Generator: Adobe Illustrator 21.1.0, SVG Export Plug-In . SVG Version: 6.00 Build 0)  -->
<svg version="1.0" id="Capa_1" xmlns="http://www.w3.org/2000/svg" xmlns:xlink="http://www.w3.org/1999/xlink" x="0px" y="0px"
	 width="94px" height="40px" viewBox="0 0 94 40" enable-background="new 0 0 94 40" xml:space="preserve">
<path fill="#AD00FF" d="M30.7,34.7L29,8.7c-0.1-0.5-0.5-0.9-1-0.9h-4.8c0-4.3-3.5-7.8-7.8-7.8C11,0,7.5,3.5,7.5,7.8H2.7
	c-0.5,0-0.9,0.4-1,0.9L0,34.7v0.1c-0.1,2.8,2.1,5.2,4.9,5.3c0.1,0,0.3,0,0.4,0h20.1c2.8,0.1,5.2-2,5.3-4.8c0-0.1,0-0.3,0-0.4
	L30.7,34.7z M15.4,2c3.2,0,5.8,2.6,5.8,5.8H9.5C9.5,4.6,12.1,2,15.4,2"/>
<path fill="#FFFFFF" d="M6.1,15.1c0-1.4,1.1-2.6,2.6-2.6c0,0,0,0,0,0h8.4c2.3-0.2,4.5,0.6,6.2,2.1c1.1,1.1,1.7,2.5,1.6,4v0.1
	c0.1,2.2-1.2,4.2-3.1,5.1c2.8,1,4.4,2.6,4.4,5.8v0.1c0,4.3-3.5,6.5-8.9,6.5H8.7c-1.4,0-2.6-1.1-2.6-2.6c0,0,0,0,0,0V15.1z M16,22.1
	c2.3,0,3.8-0.8,3.8-2.5v-0.1c0-1.6-1.2-2.4-3.4-2.4h-5.2v5L16,22.1z M17.4,31.7c2.3,0,3.7-0.8,3.7-2.6V29c0-1.6-1.2-2.6-3.9-2.6h-6
	v5.2L17.4,31.7z"/>
<path fill="#FFAC00" d="M31.9,31.5L31.9,31.5c0-3.8,2.8-5.5,6.9-5.5c1.4,0,2.8,0.2,4.2,0.7v-0.3c0-2-1.2-3.1-3.7-3.1
	c-1.1,0-2.3,0.2-3.3,0.5c-0.2,0.1-0.5,0.1-0.7,0.1c-1.1,0-2-0.9-2-2c0-0.8,0.5-1.6,1.3-1.9c1.8-0.6,3.6-0.9,5.5-0.9
	c2.6,0,4.5,0.7,5.7,1.9c1.3,1.5,2,3.4,1.8,5.4v7.7c0,1.3-1,2.3-2.3,2.3c0,0,0,0,0,0c-1.2,0.1-2.2-0.8-2.3-2c0,0,0,0,0,0l0,0
	c-1.3,1.5-3.2,2.2-5.1,2.2C34.5,36.7,31.9,34.8,31.9,31.5z M43,30.4v-0.9c-1-0.4-2-0.6-3.1-0.6c-2.1,0-3.3,0.8-3.3,2.4v0.1
	c0,1.3,1.1,2.1,2.6,2.1C41.5,33.3,43,32.1,43,30.4z"/>
<path fill="#FFAC00" d="M49.3,34.4L49.3,34.4c0-1,0.4-1.8,1.1-2.4l7.9-8.7h-6.7c-1.1,0-2-0.9-2-1.9c0-1.1,0.9-2,2-2h10.6
	c1.1-0.2,2.2,0.6,2.3,1.8c0,0,0,0.1,0,0.1v0.1c0,0.9-0.4,1.8-1.1,2.4l-7.9,8.7h7c1.1,0,2,0.9,2,2c0,1.1-0.9,1.9-2,1.9H51.7
	c-1.1,0.1-2.2-0.7-2.3-1.8C49.4,34.5,49.4,34.5,49.3,34.4z"/>
<path fill="#FFAC00" d="M65.4,31.5L65.4,31.5c0-3.8,2.8-5.5,6.8-5.5c1.4,0,2.8,0.2,4.2,0.7v-0.3c0-2-1.2-3.1-3.7-3.1
	c-1.1,0-2.3,0.2-3.3,0.5c-0.2,0.1-0.5,0.1-0.7,0.1c-1.1,0-2-0.9-2-2c0-0.8,0.5-1.6,1.3-1.9c1.7-0.6,3.6-0.9,5.4-0.9
	c2.6,0,4.5,0.7,5.7,1.9c1.3,1.5,2,3.5,1.8,5.5v7.7c0,1.3-1,2.3-2.3,2.3c0,0,0,0,0,0c-1.2,0.1-2.2-0.8-2.3-2c0,0,0,0,0,0l0,0
	c-1.3,1.5-3.2,2.2-5.1,2.2C68,36.7,65.4,34.8,65.4,31.5z M76.4,30.3v-0.8c-1-0.4-2-0.6-3.1-0.6c-2.1,0-3.3,0.8-3.3,2.4v0.1
	c0,1.3,1.1,2.1,2.6,2.1C74.9,33.3,76.4,32.1,76.4,30.3L76.4,30.3z"/>
<path fill="#FFAC00" d="M83.6,21.6c0-1.3,1.1-2.4,2.4-2.4c1.3,0,2.4,1.1,2.4,2.4v0.8c0.7-1.6,1.8-3.2,3.3-3.2
	c1.2-0.1,2.3,0.8,2.3,2.1c0,0.1,0,0.2,0,0.3c0,1.1-0.7,2-1.8,2.3c-2.4,0.6-3.8,2.4-3.8,5.9v4.5c0,1.3-1.1,2.4-2.4,2.4
	c-1.3,0-2.4-1.1-2.4-2.4L83.6,21.6z"/>
<path fill="#737277" d="M33,9.9c0-0.5,0.4-0.9,0.8-0.9c0,0,0,0,0,0h2.3c1.5-0.2,2.8,0.9,3,2.3c0,0.1,0,0.3,0,0.4l0,0
	c0,1.8-1.4,2.7-3.2,2.7h-1.3v1.5c0,0.5-0.4,0.9-0.9,0.9S33,16.5,33,16.1L33,9.9z M36.1,13c0.7,0.1,1.3-0.4,1.4-1.1c0,0,0-0.1,0-0.1
	l0,0c0-0.8-0.5-1.2-1.4-1.2h-1.3V13H36.1z"/>
<path fill="#737277" d="M42.5,17c-1.7,0.1-3.1-1.2-3.1-2.9c0-0.1,0-0.1,0-0.2l0,0c-0.1-1.7,1.2-3,2.9-3.1c0,0,0.1,0,0.1,0
	c1.6,0,2.9,1.2,2.9,2.8c0,0,0,0.1,0,0.1c0,0.4-0.3,0.8-0.7,0.8c0,0,0,0-0.1,0h-3.4c0.1,0.7,0.7,1.2,1.5,1.2c0.4,0,0.9-0.1,1.2-0.4
	c0.1-0.1,0.3-0.1,0.4-0.1c0.4,0,0.7,0.3,0.7,0.6c0,0,0,0,0,0c0,0.2-0.1,0.4-0.2,0.5C44,16.8,43.3,17,42.5,17z M43.6,13.4
	c0-0.7-0.6-1.3-1.3-1.3c-0.7,0-1.3,0.6-1.3,1.3H43.6z"/>
<path fill="#737277" d="M46,11.7c0-0.5,0.4-0.9,0.8-0.9c0.5,0,0.9,0.4,0.9,0.9V12c0.3-0.6,0.7-1.1,1.2-1.1c0.5,0,0.8,0.4,0.8,0.8
	c0,0.4-0.3,0.7-0.6,0.8c-0.9,0.2-1.3,0.9-1.3,2.1v1.6c0,0.5-0.4,0.9-0.9,0.9c-0.5,0-0.8-0.4-0.8-0.9L46,11.7z"/>
<path fill="#737277" d="M55.5,16.1c0,0.5-0.4,0.9-0.8,0.9c-0.5,0-0.9-0.4-0.9-0.9V16c-0.4,0.6-1,1-1.8,1c-1.1,0-2-0.9-2-2
	c0-0.1,0-0.2,0-0.2v-3.1c0-0.5,0.4-0.9,0.9-0.9c0.5,0,0.8,0.4,0.8,0.9v2.6c0,0.8,0.4,1.2,1,1.2s1.1-0.4,1.1-1.2v-2.6
	c0-0.5,0.4-0.9,0.8-0.9c0.5,0,0.9,0.4,0.9,0.9L55.5,16.1z M52.3,10c0-0.1,0-0.2,0.1-0.3l0.6-1c0.1-0.2,0.4-0.4,0.6-0.4
	c0.4,0,1,0.3,1,0.5c0,0.2-0.1,0.3-0.2,0.4l-0.7,0.6c-0.3,0.3-0.6,0.4-1,0.4C52.5,10.3,52.3,10.2,52.3,10z"/>
</svg>
