<?xml version="1.0" encoding="utf-8"?>
<!-- Generator: Adobe Illustrator 16.0.0, SVG Export Plug-In . SVG Version: 6.00 Build 0)  -->
<!DOCTYPE svg PUBLIC "-//W3C//DTD SVG 1.1//EN" "http://www.w3.org/Graphics/SVG/1.1/DTD/svg11.dtd">
<svg version="1.1" id="Capa_1" xmlns="http://www.w3.org/2000/svg" xmlns:xlink="http://www.w3.org/1999/xlink" x="0px" y="0px"
	 width="167px" height="40px" viewBox="0 0 167 40" enable-background="new 0 0 167 40" xml:space="preserve">
<g id="Logotipo">
	<rect y="2.8" fill="#FF2841" width="28.8" height="37.2"/>
	<path fill="#FFFFFF" d="M2.4,31h1.2c0.6-0.1,1-0.6,1.2-1.2V13.6c-0.1-0.6-0.6-1-1.2-1.1H2.4V7.2h15.2v5.3h-3.3v18H20l0.8-5.1h5.9
		V36H2.4V31z"/>
	<path fill="#005FDE" d="M31.6,31H33c0.6-0.1,1-0.6,1.2-1.2V13.6c-0.1-0.6-0.6-1-1.2-1.1h-1.4V7.2h14.7v5.3h-1.5
		c-0.6,0.1-1,0.6-1.1,1.1v16.1c0.1,0.6,0.5,1,1.1,1.2h1.4V36H31.6V31z M36.9,0.2h8.2v2.3L41,6h-5.1L36.9,0.2z"/>
	<path fill="#005FDE" d="M49.5,30.9h1.2c0.6-0.101,1-0.601,1.2-1.2V13.6c-0.1-0.6-0.6-1-1.2-1.1h-1.2V7.2h14
		c7.7,0,11.8,2.4,11.8,7.4c0,3.6-2.1,5.3-5.7,6.2V21c4.2,0.7,6.6,2.8,6.6,6.8c0,5.601-4.8,8.3-12.6,8.3H49.5V30.9z M61.3,18.8h1.5
		c2.3,0,3.2-1.1,3.2-3.1s-0.9-3-3.2-3h-1.5V18.8z M63,30.7c2.6,0,3.5-1.101,3.5-3.5c0-2.4-0.9-3.4-3.5-3.4h-1.7v6.9H63z"/>
	<path fill="#005FDE" d="M79.3,31h1.2c0.6-0.1,1-0.6,1.2-1.2V13.6c-0.1-0.6-0.6-1-1.2-1.1h-1.2V7.2h24.5v9.4h-5.6l-0.8-3.7h-6.2v5.5
		h6.6v5.9h-6.6v6.3h6.3l0.8-4.399h5.8V36H79.3V31z"/>
	<path fill="#005FDE" d="M107.6,31h1.2c0.601-0.1,1-0.6,1.2-1.2V13.6c-0.1-0.6-0.6-1-1.2-1.1h-1.2V7.2H121.9
		c8.399,0,12.199,2.7,12.199,8.2c0,3.4-1.6,5.5-5.6,6.6v0.2c3,0.6,4.4,1.899,5.3,5.899l0.4,1.9c0.2,0.7,0.7,1,1,1h0.7v5h-10.5
		l-0.9-7.8c-0.3-2.4-1.1-3.2-3.2-3.2h-1.7v5.9h2.601V36H107.6V31z M119.3,20h1.7c2.8,0,3.5-1.3,3.5-3.6c0-2.3-0.8-3.6-3.5-3.6h-1.7
		V20z"/>
	<path fill="#005FDE" d="M137.2,21.6C137.2,12,143.9,6.7,152.1,6.7C160.3,6.7,167,12,167,21.6c0,9.601-6.5,14.9-14.9,14.9
		C143.7,36.5,137.2,31.1,137.2,21.6z M157.1,21.8c0-5.8-2.1-8.5-5-8.5c-2.899,0-5,2.7-5,8.5s2,8.601,5,8.601S157.1,27.6,157.1,21.8
		L157.1,21.8z"/>
</g>
</svg>
