<svg id="Capa_1" data-name="Capa 1" xmlns="http://www.w3.org/2000/svg" viewBox="0 0 248.02 40"><defs><style>.cls-1{fill:#fff;fill-rule:evenodd;}</style></defs><title>Logos Marcas GLR</title><path class="cls-1" d="M191.06,14.46q0,6.48,0,13c0,1.65.71,2.39,2.27,2.39s2.21-.77,2.22-2.45c0-3.91-.05-7.82,0-11.72a3.75,3.75,0,0,0-1.83-3.76c-.46-.27-1.06-.56-.89-1.28s.92-.47,1.4-.53c2.71-.32,5.42-.56,8.12-.86,1-.11,1.32.21,1.3,1.28-.08,5.6,0,11.2-.1,16.81,0,1.3.22,2.22,1.69,2.41.59.07.86.4.81,1.05s-.56.61-1,.61h-23.6c-.42,0-.95.19-1.05-.55a.9.9,0,0,1,.87-1.16c1.46-.17,1.73-1.08,1.72-2.39Q183,16.56,183,5.84c0-1.54-.43-2.58-1.92-3.1-.54-.19-1-.43-.93-1.19S181,1,181.4.95C184.2.68,187,.49,189.84.24c.87-.08,1.36.09,1.35,1.12,0,4.37,0,8.74,0,13.1Z"/><path class="cls-1" d="M146,28.69c-1.17.7-2.21,1.33-3.25,1.94a9.11,9.11,0,0,1-2.59,1c-4.9,1.12-7.69-1.08-7.69-6.09,0-3.49-.06-7,0-10.48a3.05,3.05,0,0,0-1.68-3.15c-.5-.27-1.24-.54-1-1.35s.88-.38,1.34-.44q3.67-.45,7.35-.82c2-.2,2-.16,2,1.78,0,4.32,0,8.63,0,13,0,3,1,3.76,3.92,3.21,1-.19,1.34-.58,1.32-1.61-.06-3.55-.08-7.09,0-10.64a3,3,0,0,0-1.61-3c-.5-.27-1.27-.5-1.07-1.31s1-.49,1.57-.55c2.49-.33,5-.51,7.5-.84,1.33-.17,1.68.31,1.66,1.59-.06,5.09,0,10.17,0,15.26,0,1.37.23,2.46,1.72,2.83.56.14.72.48.7,1,0,.74-.6.58-1,.64-2.48.38-5,.71-7.46,1.14-1.37.25-1.93-.18-1.73-1.58A11.44,11.44,0,0,0,146,28.69Z"/><path class="cls-1" d="M24.45,27.74c-.25,3.64-.25,3.64-3.88,3.64-6.42,0-12.84,0-19.26,0-.46,0-1.18.4-1.3-.59s.41-1.09,1.06-1.15C2.94,29.44,3,28,3,26.69c0-2.67,0-5.34,0-8V7.58C3,6,2.76,4.57.76,4.41.08,4.35,0,3.92,0,3.33c.05-.76.62-.55,1-.55q6.63,0,13.25,0c.46,0,1-.21,1.12.64s-.45,1-1,1c-1.7.13-2.19,1.13-2.18,2.7,0,6.47,0,12.94,0,19.42,0,2.15.45,2.54,2.64,2.68,2.53.16,4.48-.58,5.67-3,.79-1.61,1.75-3.13,2.38-4.82a1.18,1.18,0,0,1,1.56-.82c.8.18.38.86.35,1.28-.07,1.13-.12,2.12-.16,3.35Z"/><path class="cls-1" d="M225.55,27.73c-2.84,3.65-8.28,5.09-13.14,3.47-4.13-1.38-6.42-5-6.64-9.91C205.38,12.49,212,9,219.23,9.16a10,10,0,0,1,4.49.91,3.53,3.53,0,0,1,2.06,4,3.14,3.14,0,0,1-3.3,2.43c-1.76-.08-2.71-1-3.16-3-.2-.9.21-2.25-1.34-2.38A3,3,0,0,0,214.71,13c-1.54,4.16-1.65,8.36.46,12.35,1.08,2.05,3.23,2.37,5.37,2.28a14,14,0,0,0,5-1.38A2.34,2.34,0,0,1,225.55,27.73Z"/><path class="cls-1" d="M199.56,0a3.92,3.92,0,0,1,4.08,4.07,4.05,4.05,0,0,1-4.47,3.86,4.09,4.09,0,0,1-4.12-4.11C195.12,1.53,197-.07,199.56,0Z"/><path class="cls-1" d="M149.1,3.67a2.21,2.21,0,0,1-1.68,2.45c-2.39.56-4.81,1-7.21,1.49-.3.06-.59.08-.77-.29a.73.73,0,0,1,.21-.95c1.65-1.62,3.25-3.27,4.93-4.85a2.67,2.67,0,0,1,4.53,2.15Z"/><path class="cls-1" d="M83.95,29.65c-1-.18-1.52-1-2-1.74a75.55,75.55,0,0,1-5-9.18c-.44-.94-.56-1.47.69-1.88a5.24,5.24,0,0,0,3.5-3.63c1.41-4.63-.6-8.32-5.27-9.63a15.62,15.62,0,0,0-2.71-.54c-5.94-.59-11.91-.14-17.86-.28-.46,0-.91-.08-.94.65s.23,1,.82,1c1.89.15,2.12,1.4,2.1,2.94,0,3.18,0,6.37,0,9.55,0,3.34,0,6.68,0,10,0,1.46-.35,2.54-2,2.68-.69.06-.93.45-.87,1.15s.58.58,1,.58H68.26c.53,0,1,.07,1.07-.72s-.37-.94-.9-1c-1.7-.17-2-1.34-2-2.74,0-2,0-4,0-6,0-.54-.51-1.38.61-1.58s1.18.51,1.44,1.19a62.23,62.23,0,0,0,4.68,9.85,1.61,1.61,0,0,0,1.53,1c3-.06,6,0,8.94,0,.37,0,.87.14.9-.51S84.65,29.77,83.95,29.65Zm-12-15.44c-.26,1.42-.84,2.63-2.42,3.05-2.48.67-3.07.24-3.07-2.28V11.14c0-1.64,0-3.28,0-4.92,0-.86.32-1.15,1.11-1.28,2.67-.41,4.06.6,4.46,3.32A17.81,17.81,0,0,1,71.9,14.21Z"/><path class="cls-1" d="M129.54,15.1a7.67,7.67,0,0,0-7.19-5.94c-2.79-.13-5,1.09-7.3,3,0-.54-.07-.8-.06-1,.07-2,0-2.05-1.89-1.86-2.4.24-4.8.52-7.19.81-.46.06-1.12-.24-1.33.42s.37,1.13.88,1.44a3.49,3.49,0,0,1,1.75,3.46c-.06,6.88,0,13.77,0,20.66,0,1.19-.27,2-1.57,2.2-.6.09-1.08.3-1,1.08.13.94.84.6,1.32.6q5.32,0,10.64,0c.47,0,1.18.36,1.28-.62s-.52-1-1.13-1.08c-1.16-.15-1.55-.83-1.47-1.92,0-.57,0-1.13,0-1.7,0-.92-.4-2.12,0-2.69.57-.72,1.81-.12,2.76-.12,5.85,0,9.78-2.55,11.3-7.46A16.28,16.28,0,0,0,129.54,15.1ZM121.2,27.49a3.17,3.17,0,0,1-4.62,2.07,1.94,1.94,0,0,1-1.31-2c.08-2.1,0-4.2,0-6.3s.06-4.1,0-6.15c0-1,.41-1.34,1.27-1.51,2.56-.51,4.26.42,4.86,3A22.23,22.23,0,0,1,121.2,27.49Z"/><path class="cls-1" d="M180.4,17c-.74-5.48-4.38-8.49-9.29-7.8A10.67,10.67,0,0,0,165.74,12c0-3.6-.06-6.94,0-10.28,0-1.29-.38-1.6-1.6-1.47-2.71.29-5.42.46-8.13.71-.41,0-1-.14-1.1.55a1,1,0,0,0,.76,1.15c1.69.53,2,1.76,2,3.36-.05,7.24,0,14.49-.05,21.73a2.07,2.07,0,0,0,1.29,2.12,19.87,19.87,0,0,0,10.93,1.85c5.75-.4,9.36-3.63,10.43-9.31A16.88,16.88,0,0,0,180.4,17Zm-8.66,10.19a3.14,3.14,0,0,1-4.47,2.4,2.09,2.09,0,0,1-1.6-2.28c.1-2,0-4,0-6s.06-4.21,0-6.32c0-1,.37-1.24,1.18-1.42,2.63-.58,4.41.38,5,3A23.22,23.22,0,0,1,171.74,27.24Z"/><path class="cls-1" d="M47.17,29.25c0-.51-.47-.49-.81-.53-1.57-.15-2-1.09-2-2.55.05-3.55,0-7.09,0-10.63s-1.5-5.33-4.95-6a22.36,22.36,0,0,0-10.07.34,5.47,5.47,0,0,0-3,1.77,3.09,3.09,0,0,0,.45,4.49,3.68,3.68,0,0,0,5.61-2.42,13.71,13.71,0,0,0,.21-1.37c.11-1.2.85-1.4,1.85-1.2A2,2,0,0,1,36.12,13c.23,1.27.15,2.57.27,3.83.13,1.44-.31,2.07-1.78,2.35a22.86,22.86,0,0,0-6.43,2,5.39,5.39,0,0,0-3.23,4,11.24,11.24,0,0,0,0,2.22,4.77,4.77,0,0,0,4,4.13c2.56.54,5,.32,7-1.61.27-.25.44-.85,1-.18,2.16,2.41,7.16,2.71,9.66.67A1.23,1.23,0,0,0,47.17,29.25Zm-11.85-1a1.7,1.7,0,0,1-2.09-.88,6,6,0,0,1,0-5.2c.52-1.12,1.69-1,2.71-1,.48,0,.42.5.42.85,0,.82,0,1.65,0,2.47s0,1.44,0,2.15S36.18,28.07,35.32,28.27Z"/><path class="cls-1" d="M248,29.26c0-.51-.45-.51-.79-.55-1.58-.15-2-1.13-2-2.56,0-3.59,0-7.18,0-10.78,0-3.22-1.46-5.08-4.61-5.8a23.15,23.15,0,0,0-8.72-.08A8.83,8.83,0,0,0,228,10.91a3.4,3.4,0,0,0-1.41,3.78c.45,1.47,1.6,1.89,3,1.93,1.89.05,3-.6,3.5-2.14a12.79,12.79,0,0,0,.41-2.26,1.17,1.17,0,0,1,1.36-1.13,2,2,0,0,1,2.1,1.86,34.72,34.72,0,0,1,.24,4.6c.06.93-.33,1.23-1.15,1.43a33.41,33.41,0,0,0-6.6,2c-1.94.92-3.46,2.22-3.65,4.56a8.67,8.67,0,0,0,0,2.19,4.92,4.92,0,0,0,3.82,3.8c2.62.6,5.1.38,7.23-1.51.23-.22.38-1,1-.26,2.25,2.42,7.15,2.74,9.65.71A1.25,1.25,0,0,0,248,29.26Zm-11.9-1a1.76,1.76,0,0,1-2.07-1,6.06,6.06,0,0,1,0-5.06c.49-1.12,1.61-1.14,2.65-1.1.59,0,.49.56.5.94,0,.82,0,1.64,0,2.46,0,.66,0,1.33,0,2C237.27,27.44,237,28.1,236.11,28.29Z"/><path class="cls-1" d="M93,19.55c3.6.1,7.2,0,10.79.05,1,0,1.22-.27,1.18-1.22-.25-5.78-3.48-9-9.4-9.23a11,11,0,0,0-10.77,6.51c-1.9,4.54-.91,10.57,2.22,13.52,4.16,3.93,13.35,3.35,16.86-1a2.17,2.17,0,0,0,.27-2,11.93,11.93,0,0,1-5,1.44c-4.37.22-6.63-1.18-7.26-5.63,0-.31-.08-.62-.14-.91C91.54,20,91.74,19.51,93,19.55Zm-1.11-4.39a8,8,0,0,1,.8-2.8A2.18,2.18,0,0,1,94.93,11a2.14,2.14,0,0,1,1.95,1.69,15.81,15.81,0,0,1,.43,4c.05.62-.33.77-.87.78-.77,0-1.54.08-2.3.12C91.59,17.7,91.6,17.7,91.91,15.16Z"/></svg>