<svg id="Capa_1" data-name="Capa 1" xmlns="http://www.w3.org/2000/svg" viewBox="0 0 167 48"><defs><style>.cls-1{fill:#ed1e79;}.cls-2{fill:#fff;}</style></defs><title>Logos Marcas GLR</title><path class="cls-1" d="M30.69,9.34,19.59,36.59H17L6.62,5.81C5.58,2.68,3.83,1.33.44,1.24V.89H15.72a.55.55,0,0,0,0,.35c-4.18.13-4.66,2.22-3.74,5l8.79,26.33L30.47,8.77l-1.09-3C28.21,2.72,26.86,1.24,24,1.24V.89H39.31a.55.55,0,0,0,0,.35c-4.57.17-5.79,1.7-3.7,7.31l8.92,23.81,8-20.85a18.42,18.42,0,0,0,1-5.31c0-3.53-2.79-5-5.79-5,0-.22,0-.3,0-.35H61.42v.35c-3.66,0-6.14,4-8.31,9.75L43.36,36.59H41.05Z"/><path class="cls-1" d="M43.66,37H40.75L30.68,10.54,19.89,37H16.66L6.2,6C5.21,3,3.59,1.76.43,1.68H0V.45H16.43l-.32.63s0,0,0,.06a.72.72,0,0,1,0,.09v.43h-.43c-1.71.05-2.83.45-3.35,1.18s-.48,1.76,0,3.25l8.42,25.21L30,8.76,29,6C27.77,2.8,26.48,1.68,24,1.68h-.44V.45H40l-.32.63s0,0,0,.06a.71.71,0,0,1,0,.09v.42l-.42,0c-2.17.08-3.38.47-3.91,1.27s-.44,2.67.6,5.45l8.52,22.72L52,11.36a18.07,18.07,0,0,0,1-5.15c0-4.2-4.09-4.52-5.35-4.52h-.54l.1-.52a.16.16,0,0,0,0-.08A.5.5,0,0,1,47.4.58l.13-.13H61.86V1.67h-.43c-3,0-5.44,3-7.91,9.47Zm-2.31-.88h1.7L44.26,33,35.16,8.71c-1.17-3.15-1.33-5-.51-6.25A3,3,0,0,1,36.1,1.33H26.57C28.13,2.1,29,3.64,29.8,5.66L31.1,9.18Zm-24.06,0h2l1.18-2.91-9-26.85c-.58-1.78-.55-3.09.11-4a3.07,3.07,0,0,1,1.28-1H3.43C5.16,2,6.28,3.4,7,5.67ZM50.7,1.33A4.88,4.88,0,0,1,53.94,6.2a13.31,13.31,0,0,1-.21,2.1c1.33-3,3.06-5.83,5.44-7Z"/><path class="cls-1" d="M55.19,27.56c0-6.15,5.84-10,11.42-10,5.42,0,8.92,2.66,10.27,6.21-.05-2.45-.05-6.21-.05-7.25,0-5.21-3.86-6.73-7.25-6.73-5.42,0-10.38,4.9-12.2,4.9a1.53,1.53,0,0,1-.89-.31,1.32,1.32,0,0,1-.42-.94c0-2.5,10.17-4.07,13.51-4.07,6.47,0,13,2.19,13,11.52V33c0,2.92.73,3.55,2.09,3.55,2.4,0,2.35-3.75,3-3.75s.63.47.37,1.2c-.31.89-1.15,3.13-4.8,3.13s-6-3.18-6.31-6.94c-1.62,5.06-5.32,6.94-10.27,6.94C61.18,37.16,55.19,33.72,55.19,27.56Zm21.75-.42a8.44,8.44,0,0,0-8.14-8.71c-3.13,0-7.41,2.45-7.41,9S65,36.22,69,36.22A8.84,8.84,0,0,0,76.93,27.15Z"/><path class="cls-1" d="M83.19,37.6c-3.13,0-5.67-2.31-6.49-5.69-1.77,3.82-5.09,5.69-10.09,5.69-5.83,0-11.86-3.75-11.86-10,0-6.46,6.16-10.45,11.86-10.45,4.35,0,7.88,1.74,9.81,4.74,0-1.44,0-3.23,0-5.35,0-5.68-4.76-6.29-6.81-6.29-3.31,0-6.5,1.93-8.83,3.34-1.5.91-2.58,1.56-3.37,1.56a2,2,0,0,1-1.16-.41l0,0a1.75,1.75,0,0,1-.55-1.25c0-3.11,11.09-4.51,13.95-4.51,8.91,0,13.42,4,13.42,12V33c0,3.11.87,3.11,1.65,3.11,1.17,0,1.61-1.11,2-2.45.23-.73.41-1.31.94-1.31a.9.9,0,0,1,.79.36,1.61,1.61,0,0,1,0,1.42C88.1,35,87.19,37.6,83.19,37.6Zm-6-8.68.09,1.27c.27,3.84,2.68,6.53,5.87,6.53h.14c-.85-.5-1.2-1.65-1.2-3.68V20.89c0-6.09-2.89-9.7-8.62-10.76,1.93.87,3.76,2.67,3.76,6.38,0,3.18,0,5.62.05,7.24l.05,2.53,0-.13q0,.49,0,1A10.94,10.94,0,0,1,77.23,28.92ZM66.61,18c-5.28,0-11,3.66-11,9.57,0,5.73,5.58,9.16,11,9.16a16.49,16.49,0,0,0,1.69-.08C65.66,36.46,61,35.07,61,27.46c0-6.37,3.95-9,7-9.41Q67.32,18,66.61,18Zm2.19.89c-2.41,0-7,1.79-7,8.58,0,7.24,4.46,8.32,7.12,8.32a8.36,8.36,0,0,0,7.54-8.63A8,8,0,0,0,68.8,18.88Zm18.9,14.56c-.06.16-.12.36-.17.53l-.13.4c.08-.18.14-.34.18-.47A2.18,2.18,0,0,0,87.69,33.43ZM56.78,14a1.1,1.1,0,0,0,.59.2,9.26,9.26,0,0,0,2.92-1.43,30.61,30.61,0,0,1,5.12-2.65c-4.16.61-8.9,1.91-8.9,3.27A.87.87,0,0,0,56.78,14Z"/><path class="cls-1" d="M119,27.56c0-6.15,5.84-10,11.42-10,5.42,0,8.92,2.66,10.27,6.21-.05-2.45-.05-6.21-.05-7.25,0-5.21-3.86-6.73-7.25-6.73-5.42,0-10.38,4.9-12.2,4.9a1.53,1.53,0,0,1-.89-.31,1.32,1.32,0,0,1-.42-.94c0-2.5,10.17-4.07,13.51-4.07,6.47,0,13,2.19,13,11.52V33c0,2.92.73,3.55,2.09,3.55,2.4,0,2.35-3.75,3-3.75s.63.47.37,1.2c-.31.89-1.15,3.13-4.8,3.13s-6-3.18-6.31-6.94c-1.62,5.06-5.32,6.94-10.27,6.94C125,37.16,119,33.72,119,27.56Zm21.75-.42a8.44,8.44,0,0,0-8.14-8.71c-3.13,0-7.41,2.45-7.41,9s3.65,8.76,7.56,8.76A8.84,8.84,0,0,0,140.79,27.15Z"/><path class="cls-1" d="M147,37.6c-3.13,0-5.67-2.31-6.49-5.69-1.77,3.82-5.09,5.69-10.09,5.69-5.83,0-11.86-3.75-11.86-10,0-6.46,6.16-10.45,11.86-10.45,4.35,0,7.88,1.74,9.81,4.74,0-1.44,0-3.23,0-5.35,0-5.68-4.76-6.29-6.81-6.29-3.31,0-6.5,1.93-8.83,3.34-1.5.91-2.58,1.56-3.37,1.56a2,2,0,0,1-1.16-.41l0,0a1.75,1.75,0,0,1-.55-1.25c0-3.11,11.09-4.51,13.95-4.51,8.91,0,13.42,4,13.42,12V33c0,3.11.87,3.11,1.65,3.11,1.17,0,1.61-1.11,2-2.45.23-.73.41-1.31.94-1.31a.9.9,0,0,1,.79.36,1.61,1.61,0,0,1,0,1.42C152,35,151,37.6,147,37.6Zm-6-8.68.09,1.27c.27,3.84,2.68,6.53,5.87,6.53h.14c-.85-.5-1.2-1.65-1.2-3.68V20.89c0-6.09-2.89-9.7-8.62-10.76,1.93.87,3.76,2.67,3.76,6.38,0,3.18,0,5.62.05,7.24l.05,2.53,0-.13q0,.49,0,1A10.94,10.94,0,0,1,141.08,28.92ZM130.46,18c-5.28,0-11,3.66-11,9.57,0,5.73,5.58,9.16,11,9.16a16.49,16.49,0,0,0,1.69-.08c-2.64-.18-7.34-1.56-7.34-9.18,0-6.37,3.95-9,7-9.41Q131.17,18,130.46,18Zm2.19.89c-2.41,0-7,1.79-7,8.58,0,7.24,4.46,8.32,7.12,8.32a8.36,8.36,0,0,0,7.54-8.63A8,8,0,0,0,132.65,18.88Zm18.9,14.56c-.06.16-.12.36-.17.53l-.13.4c.08-.18.14-.34.18-.47A2.19,2.19,0,0,0,151.55,33.43ZM120.64,14a1.1,1.1,0,0,0,.59.2,9.26,9.26,0,0,0,2.92-1.43,30.6,30.6,0,0,1,5.12-2.65c-4.16.61-8.9,1.91-8.9,3.27A.87.87,0,0,0,120.64,14Z"/><circle cx="160.25" cy="30.68" r="6.75"/><path class="cls-2" d="M158.27,28.29a2.92,2.92,0,0,1,.87.12,1.68,1.68,0,0,1,.61.33,1.3,1.3,0,0,1,.36.51,1.82,1.82,0,0,1,.12.67,1.73,1.73,0,0,1-.13.67,1.44,1.44,0,0,1-.37.53,1.71,1.71,0,0,1-.61.34,2.69,2.69,0,0,1-.85.12h-.8v1.91h-.77v-5.2Zm0,2.67a1.59,1.59,0,0,0,.52-.08,1,1,0,0,0,.37-.22.89.89,0,0,0,.23-.33,1.17,1.17,0,0,0,.08-.43,1,1,0,0,0-.29-.75,1.29,1.29,0,0,0-.9-.27h-.8V31Z"/><path class="cls-2" d="M164.12,32.86v.63H160.9v-5.2h3.22v.63h-2.45v1.65h2v.6h-2v1.69Z"/><path class="cls-1" d="M104.45,9.68c-5.22,0-9.07,3.44-10.69,8.6V17c0-4.07-2-7.3-5.74-7.3h0v2.63c0,.21,0,.42,0,.66,0,0-.16,27.05-.16,27.63a6.76,6.76,0,0,0,5.87,6.9V42.7c0-3.31,0-9.5,0-14.14,1.67,6.57,5.84,8.6,10.38,8.6,6.83,0,13.35-5.48,13.35-14.18A12.85,12.85,0,0,0,104.45,9.68Zm-2,26.75c-3.49,0-8-3.23-8.71-11v-.16l-.05.05a19.12,19.12,0,0,1,.05-3.86c.68-6.52,4.8-11,9.33-11,4,0,8.71,3.39,8.71,13S106.9,36.43,102.47,36.43Z"/><path class="cls-1" d="M94.17,48l-.5-.07a7.17,7.17,0,0,1-6.25-7.34c0-.57.15-27.36.16-27.63s0-.41,0-.62V9.24H88c3.52,0,5.87,2.64,6.17,6.8a11.17,11.17,0,0,1,10.28-6.8A13.32,13.32,0,0,1,117.92,23c0,9.15-7,14.62-13.79,14.62-4.78,0-8.11-2.14-9.94-6.37,0,1.28,0,2.61,0,3.92,0,2.92,0,5.68,0,7.55ZM88.43,12.29c0,.23,0,.45,0,.68S88.3,40,88.3,40.59a6.29,6.29,0,0,0,5,6.37V42.7c0-1.87,0-4.63,0-7.55,0-2.24,0-4.56,0-6.59V26l-.05-.61a19.46,19.46,0,0,1,.05-3.95q0-.21,0-.42l-.05.17V17c0-4-1.9-6.63-4.89-6.85Zm15.69,24.43h0C110.48,36.72,117,31.58,117,23a12.46,12.46,0,0,0-12.6-12.86h-.15c3.9.63,7.94,4.36,7.94,13.33C112.24,32.19,108.3,36,104.12,36.72ZM94.2,25.41C94.84,32.68,98.93,36,102.47,36c4.3,0,8.9-3.3,8.9-12.55s-4.46-12.55-8.27-12.55c-4.44,0-8.27,4.56-8.9,10.61a17.74,17.74,0,0,0-.11,2.82l.11-.11Z"/></svg>